<svg xmlns="http://www.w3.org/2000/svg" viewBox="0 0 1536 437" preserveAspectRatio="xMidYMid" width="1536" height="437" xmlns:xlink="http://www.w3.org/1999/xlink" style="shape-rendering:auto;display:block;background-position-x:0%;background-position-y:0%;background-size:auto;background-origin:padding-box;background-clip:border-box;background:scroll rgba(0, 0, 0, 0) none  repeat;width:1536px;height:437px;;animation:none"><g><defs><linearGradient gradientUnits="userSpaceOnUse" y2="437" y1="198.5" x2="0" x1="0" id="ldbk-photon-tdzlfg9d0w-lg"><stop offset="0" stop-color="#6b93fd"></stop>

    
<stop offset="1" stop-color="#6be3fd"></stop></linearGradient>

  
<mask id="ldbk-photon-tdzlfg9d0w-mask"><g><path fill="#fff" d="M-0.5 737 L-0.5 208.1153796149737 A13 13 0 0 0 26.5 208.1153796149737 L26.5 737" transform="matrix(1,0,0,1,0,0)" style="fill:rgb(255, 255, 255);transform:matrix(1, 0, 0, 1, 0, 0);;animation:none"></path>
<path fill="#000" d="M-0.5 474.784799269421 L-0.5 486.569598538842 A13 13 0 0 0 26.5 486.569598538842 L26.5 474.784799269421 A13 13 0 0 0 -0.5 474.784799269421" transform="matrix(1,0,0,1,0,0)" opacity="1" style="fill:rgb(0, 0, 0);transform:matrix(1, 0, 0, 1, 0, 0);;animation:none"></path>
<path fill="#fff" d="M25.5 737 L25.5 196.96984337404785 A13 13 0 0 1 52.5 196.96984337404785 L52.5 737" transform="matrix(1,0,0,1,0,-3.4054038524627686)" style="fill:rgb(255, 255, 255);transform:matrix(1, 0, 0, 1, 0, -3.4054);;animation:none"></path>
<path fill="#fff" d="M25.5 222.96984337404785 L25.5 256.27275157082255 A13 13 0 0 0 52.5 256.27275157082255 L52.5 222.96984337404785 A13 13 0 0 0 25.5 222.96984337404785" transform="matrix(1,0,0,1,0,0)" opacity="1" style="fill:rgb(255, 255, 255);transform:matrix(1, 0, 0, 1, 0, 0);;animation:none"></path>
<path fill="#fff" d="M51.5 737 L51.5 207.90006317404107 A13 13 0 0 0 78.5 207.90006317404107 L78.5 737" transform="matrix(1,0,0,1,0,16.928403854370117)" style="fill:rgb(255, 255, 255);transform:matrix(1, 0, 0, 1, 0, 16.9284);;animation:none"></path>
<path fill="#000" d="M51.5 500.1365400654985 L51.5 537.273080130997 A13 13 0 0 0 78.5 537.273080130997 L78.5 500.1365400654985 A13 13 0 0 0 51.5 500.1365400654985" transform="matrix(1,0,0,1,0,-120.3096923828125)" opacity="1" style="fill:rgb(0, 0, 0);transform:matrix(1, 0, 0, 1, 0, -120.31);;animation:none"></path>
<path fill="#fff" d="M77.5 737 L77.5 166.1903505394041 A13 13 0 0 1 104.5 166.1903505394041 L104.5 737" transform="matrix(1,0,0,1,0,-23.191354751586914)" style="fill:rgb(255, 255, 255);transform:matrix(1, 0, 0, 1, 0, -23.1914);;animation:none"></path>
<path fill="#fff" d="M77.5 192.1903505394041 L77.5 214.01099861508214 A13 13 0 0 0 104.5 214.01099861508214 L104.5 192.1903505394041 A13 13 0 0 0 77.5 192.1903505394041" transform="matrix(1,0,0,1,0,0)" opacity="0.796253" style="fill:rgb(255, 255, 255);transform:matrix(1, 0, 0, 1, 0, 0);opacity:0.796253;;animation:none"></path>
<path fill="#fff" d="M103.5 737 L103.5 212.9106408798357 A13 13 0 0 0 130.5 212.9106408798357 L130.5 737" transform="matrix(1,0,0,1,0,14.554537773132324)" style="fill:rgb(255, 255, 255);transform:matrix(1, 0, 0, 1, 0, 14.5545);;animation:none"></path>
<path fill="#000" d="M103.5 482.19512577403776 L103.5 501.3902515480755 A13 13 0 0 0 130.5 501.3902515480755 L130.5 482.19512577403776 A13 13 0 0 0 103.5 482.19512577403776" transform="matrix(1,0,0,1,0,-67.76045227050781)" opacity="1" style="fill:rgb(0, 0, 0);transform:matrix(1, 0, 0, 1, 0, -67.7605);;animation:none"></path>
<path fill="#fff" d="M129.5 737 L129.5 156.03404748880735 A13 13 0 0 1 156.5 156.03404748880735 L156.5 737" transform="matrix(1,0,0,1,0,-8.868098258972168)" style="fill:rgb(255, 255, 255);transform:matrix(1, 0, 0, 1, 0, -8.8681);;animation:none"></path>
<path fill="#fff" d="M129.5 182.03404748880735 L129.5 198.030743230935 A13 13 0 0 0 156.5 198.030743230935 L156.5 182.03404748880735 A13 13 0 0 0 129.5 182.03404748880735" transform="matrix(1,0,0,1,0,0)" opacity="0.374707" style="fill:rgb(255, 255, 255);transform:matrix(1, 0, 0, 1, 0, 0);opacity:0.374707;;animation:none"></path>
<path fill="#fff" d="M155.5 737 L155.5 204.65425941379823 A13 13 0 0 0 182.5 204.65425941379823 L182.5 737" transform="matrix(1,0,0,1,0,14.600749969482422)" style="fill:rgb(255, 255, 255);transform:matrix(1, 0, 0, 1, 0, 14.6008);;animation:none"></path>
<path fill="#000" d="M155.5 479.1122154382486 L155.5 495.2244308764972 A13 13 0 0 0 182.5 495.2244308764972 L182.5 479.1122154382486 A13 13 0 0 0 155.5 479.1122154382486" transform="matrix(1,0,0,1,0,-286.9693908691406)" opacity="0.58548" style="fill:rgb(0, 0, 0);transform:matrix(1, 0, 0, 1, 0, -286.969);opacity:0.58548;;animation:none"></path>
<path fill="#fff" d="M181.5 737 L181.5 151.58595962179913 A13 13 0 0 1 208.5 151.58595962179913 L208.5 737" transform="matrix(1,0,0,1,0,-15.487516403198242)" style="fill:rgb(255, 255, 255);transform:matrix(1, 0, 0, 1, 0, -15.4875);;animation:none"></path>
<path fill="#fff" d="M181.5 177.58595962179913 L181.5 205.47186184363886 A13 13 0 0 0 208.5 205.47186184363886 L208.5 177.58595962179913 A13 13 0 0 0 181.5 177.58595962179913" transform="matrix(1,0,0,1,0,0)" opacity="0.936768" style="fill:rgb(255, 255, 255);transform:matrix(1, 0, 0, 1, 0, 0);opacity:0.936768;;animation:none"></path>
<path fill="#fff" d="M207.5 737 L207.5 184.83313464524974 A13 13 0 0 0 234.5 184.83313464524974 L234.5 737" transform="matrix(1,0,0,1,0,6.917581558227539)" style="fill:rgb(255, 255, 255);transform:matrix(1, 0, 0, 1, 0, 6.91758);;animation:none"></path>
<path fill="#000" d="M207.5 474.34663109868666 L207.5 485.6932621973733 A13 13 0 0 0 234.5 485.6932621973733 L234.5 474.34663109868666 A13 13 0 0 0 207.5 474.34663109868666" transform="matrix(1,0,0,1,0,-93.10943603515625)" opacity="1" style="fill:rgb(0, 0, 0);transform:matrix(1, 0, 0, 1, 0, -93.1094);;animation:none"></path>
<path fill="#fff" d="M233.5 737 L233.5 167.3687817460057 A13 13 0 0 1 260.5 167.3687817460057 L260.5 737" transform="matrix(1,0,0,1,0,-15.458741188049316)" style="fill:rgb(255, 255, 255);transform:matrix(1, 0, 0, 1, 0, -15.4587);;animation:none"></path>
<path fill="#fff" d="M233.5 193.3687817460057 L233.5 225.90932236192384 A13 13 0 0 0 260.5 225.90932236192384 L260.5 193.3687817460057 A13 13 0 0 0 233.5 193.3687817460057" transform="matrix(1,0,0,1,0,0)" opacity="0.796253" style="fill:rgb(255, 255, 255);transform:matrix(1, 0, 0, 1, 0, 0);opacity:0.796253;;animation:none"></path>
<path fill="#fff" d="M259.5 737 L259.5 169.27323778176628 A13 13 0 0 0 286.5 169.27323778176628 L286.5 737" transform="matrix(1,0,0,1,0,0.023641586303710938)" style="fill:rgb(255, 255, 255);transform:matrix(1, 0, 0, 1, 0, 0.0236416);;animation:none"></path>
<path fill="#000" d="M259.5 487.6353009700515 L259.5 512.270601940103 A13 13 0 0 0 286.5 512.270601940103 L286.5 487.6353009700515 A13 13 0 0 0 259.5 487.6353009700515" transform="matrix(1,0,0,1,0,-222.92567443847656)" opacity="0.749415" style="fill:rgb(0, 0, 0);transform:matrix(1, 0, 0, 1, 0, -222.926);opacity:0.749415;;animation:none"></path>
<path fill="#fff" d="M285.5 737 L285.5 125.43932288856558 A13 13 0 0 1 312.5 125.43932288856558 L312.5 737" transform="matrix(1,0,0,1,0,-13.388449668884277)" style="fill:rgb(255, 255, 255);transform:matrix(1, 0, 0, 1, 0, -13.3884);;animation:none"></path>
<path fill="#fff" d="M285.5 151.43932288856558 L285.5 185.786313644911 A13 13 0 0 0 312.5 185.786313644911 L312.5 151.43932288856558 A13 13 0 0 0 285.5 151.43932288856558" transform="matrix(1,0,0,1,0,0)" opacity="0.538641" style="fill:rgb(255, 255, 255);transform:matrix(1, 0, 0, 1, 0, 0);opacity:0.538641;;animation:none"></path>
<path fill="#fff" d="M311.5 737 L311.5 174.94265259213188 A13 13 0 0 0 338.5 174.94265259213188 L338.5 737" transform="matrix(1,0,0,1,0,5.34030818939209)" style="fill:rgb(255, 255, 255);transform:matrix(1, 0, 0, 1, 0, 5.34031);;animation:none"></path>
<path fill="#000" d="M311.5 495.75610030502264 L311.5 528.5122006100453 A13 13 0 0 0 338.5 528.5122006100453 L338.5 495.75610030502264 A13 13 0 0 0 311.5 495.75610030502264" transform="matrix(1,0,0,1,0,-88.30665588378906)" opacity="1" style="fill:rgb(0, 0, 0);transform:matrix(1, 0, 0, 1, 0, -88.3067);;animation:none"></path>
<path fill="#fff" d="M337.5 737 L337.5 151.20005762644354 A13 13 0 0 1 364.5 151.20005762644354 L364.5 737" transform="matrix(1,0,0,1,0,-17.890533447265625)" style="fill:rgb(255, 255, 255);transform:matrix(1, 0, 0, 1, 0, -17.8905);;animation:none"></path>
<path fill="#fff" d="M337.5 177.20005762644354 L337.5 200.99367673640887 A13 13 0 0 0 364.5 200.99367673640887 L364.5 177.20005762644354 A13 13 0 0 0 337.5 177.20005762644354" transform="matrix(1,0,0,1,0,0)" opacity="0.515223" style="fill:rgb(255, 255, 255);transform:matrix(1, 0, 0, 1, 0, 0);opacity:0.515223;;animation:none"></path>
<path fill="#fff" d="M363.5 737 L363.5 183.11221227205107 A13 13 0 0 0 390.5 183.11221227205107 L390.5 737" transform="matrix(1,0,0,1,0,11.846908569335938)" style="fill:rgb(255, 255, 255);transform:matrix(1, 0, 0, 1, 0, 11.8469);;animation:none"></path>
<path fill="#000" d="M363.5 484.79756778682474 L363.5 506.5951355736495 A13 13 0 0 0 390.5 506.5951355736495 L390.5 484.79756778682474 A13 13 0 0 0 363.5 484.79756778682474" transform="matrix(1,0,0,1,0,-362.6635437011719)" opacity="0.444965" style="fill:rgb(0, 0, 0);transform:matrix(1, 0, 0, 1, 0, -362.664);opacity:0.444965;;animation:none"></path>
<path fill="#fff" d="M389.5 737 L389.5 122.33610116006008 A13 13 0 0 1 416.5 122.33610116006008 L416.5 737" transform="matrix(1,0,0,1,0,-9.442203521728516)" style="fill:rgb(255, 255, 255);transform:matrix(1, 0, 0, 1, 0, -9.4422);;animation:none"></path>
<path fill="#fff" d="M389.5 148.33610116006008 L389.5 163.2200866099785 A13 13 0 0 0 416.5 163.2200866099785 L416.5 148.33610116006008 A13 13 0 0 0 389.5 148.33610116006008" transform="matrix(1,0,0,1,0,0)" opacity="0.374707" style="fill:rgb(255, 255, 255);transform:matrix(1, 0, 0, 1, 0, 0);opacity:0.374707;;animation:none"></path>
<path fill="#fff" d="M415.5 737 L415.5 160.37849904316596 A13 13 0 0 0 442.5 160.37849904316596 L442.5 737" transform="matrix(1,0,0,1,0,16.168983459472656)" style="fill:rgb(255, 255, 255);transform:matrix(1, 0, 0, 1, 0, 16.169);;animation:none"></path>
<path fill="#000" d="M415.5 487.89298964396187 L415.5 512.7859792879237 A13 13 0 0 0 442.5 512.7859792879237 L442.5 487.89298964396187 A13 13 0 0 0 415.5 487.89298964396187" transform="matrix(1,0,0,1,0,-393.0504150390625)" opacity="0.30445" style="fill:rgb(0, 0, 0);transform:matrix(1, 0, 0, 1, 0, -393.05);opacity:0.30445;;animation:none"></path>
<path fill="#fff" d="M441.5 737 L441.5 144.3538504069425 A13 13 0 0 1 468.5 144.3538504069425 L468.5 737" transform="matrix(1,0,0,1,0,-21.474166870117188)" style="fill:rgb(255, 255, 255);transform:matrix(1, 0, 0, 1, 0, -21.4742);;animation:none"></path>
<path fill="#fff" d="M441.5 170.3538504069425 L441.5 185.40896134005774 A13 13 0 0 0 468.5 185.40896134005774 L468.5 170.3538504069425 A13 13 0 0 0 441.5 170.3538504069425" transform="matrix(1,0,0,1,0,0)" opacity="0.234192" style="fill:rgb(255, 255, 255);transform:matrix(1, 0, 0, 1, 0, 0);opacity:0.234192;;animation:none"></path>
<path fill="#fff" d="M467.5 737 L467.5 173.68612864353253 A13 13 0 0 0 494.5 173.68612864353253 L494.5 737" transform="matrix(1,0,0,1,0,14.181337356567383)" style="fill:rgb(255, 255, 255);transform:matrix(1, 0, 0, 1, 0, 14.1813);;animation:none"></path>
<path fill="#000" d="M467.5 479.26536111443295 L467.5 495.5307222288659 A13 13 0 0 0 494.5 495.5307222288659 L494.5 479.26536111443295 A13 13 0 0 0 467.5 479.26536111443295" transform="matrix(1,0,0,1,0,-305.59222412109375)" opacity="0.163934" style="fill:rgb(0, 0, 0);transform:matrix(1, 0, 0, 1, 0, -305.592);opacity:0.163934;;animation:none"></path>
<path fill="#fff" d="M493.5 737 L493.5 149.68916745626996 A13 13 0 0 1 520.5 149.68916745626996 L520.5 737" transform="matrix(1,0,0,1,0,-3.112100601196289)" style="fill:rgb(255, 255, 255);transform:matrix(1, 0, 0, 1, 0, -3.1121);;animation:none"></path>
<path fill="#fff" d="M493.5 175.68916745626996 L493.5 205.29582666566756 A13 13 0 0 0 520.5 205.29582666566756 L520.5 175.68916745626996 A13 13 0 0 0 493.5 175.68916745626996" transform="matrix(1,0,0,1,0,0)" opacity="0.0936769" style="fill:rgb(255, 255, 255);transform:matrix(1, 0, 0, 1, 0, 0);opacity:0.0936769;;animation:none"></path>
<path fill="#fff" d="M519.5 737 L519.5 174.83742771949824 A13 13 0 0 0 546.5 174.83742771949824 L546.5 737" transform="matrix(1,0,0,1,0,0.3565711975097656)" style="fill:rgb(255, 255, 255);transform:matrix(1, 0, 0, 1, 0, 0.356571);;animation:none"></path>
<path fill="#000" d="M519.5 493.47495894546176 L519.5 523.9499178909235 A13 13 0 0 0 546.5 523.9499178909235 L546.5 493.47495894546176 A13 13 0 0 0 519.5 493.47495894546176" transform="matrix(1,0,0,1,0,-395.8161926269531)" opacity="0.0468386" style="fill:rgb(0, 0, 0);transform:matrix(1, 0, 0, 1, 0, -395.816);opacity:0.0468386;;animation:none"></path>
<path fill="#fff" d="M545.5 737 L545.5 163.56937270411174 A13 13 0 0 1 572.5 163.56937270411174 L572.5 737" transform="matrix(1,0,0,1,0,-0.6461936235427856)" style="fill:rgb(255, 255, 255);transform:matrix(1, 0, 0, 1, 0, -0.646194);;animation:none"></path>
<path fill="#fff" d="M545.5 189.56937270411174 L545.5 212.84480562908206 A13 13 0 0 0 572.5 212.84480562908206 L572.5 189.56937270411174 A13 13 0 0 0 545.5 189.56937270411174" transform="matrix(1,0,0,1,0,0)" opacity="1" style="fill:rgb(255, 255, 255);transform:matrix(1, 0, 0, 1, 0, 0);;animation:none"></path>
<path fill="#fff" d="M571.5 737 L571.5 182.7469884885231 A13 13 0 0 0 598.5 182.7469884885231 L598.5 737" transform="matrix(1,0,0,1,0,5.2844696044921875)" style="fill:rgb(255, 255, 255);transform:matrix(1, 0, 0, 1, 0, 5.28447);;animation:none"></path>
<path fill="#000" d="M571.5 488.7691949506317 L571.5 514.5383899012634 A13 13 0 0 0 598.5 514.5383899012634 L598.5 488.7691949506317 A13 13 0 0 0 571.5 488.7691949506317" transform="matrix(1,0,0,1,0,-70.2072525024414)" opacity="1" style="fill:rgb(0, 0, 0);transform:matrix(1, 0, 0, 1, 0, -70.2073);;animation:none"></path>
<path fill="#fff" d="M597.5 737 L597.5 155.18114275282846 A13 13 0 0 1 624.5 155.18114275282846 L624.5 737" transform="matrix(1,0,0,1,0,-2.5047695636749268)" style="fill:rgb(255, 255, 255);transform:matrix(1, 0, 0, 1, 0, -2.50477);;animation:none"></path>
<path fill="#fff" d="M597.5 181.18114275282846 L597.5 202.38826856720107 A13 13 0 0 0 624.5 202.38826856720107 L624.5 181.18114275282846 A13 13 0 0 0 597.5 181.18114275282846" transform="matrix(1,0,0,1,0,0)" opacity="1" style="fill:rgb(255, 255, 255);transform:matrix(1, 0, 0, 1, 0, 0);;animation:none"></path>
<path fill="#fff" d="M623.5 737 L623.5 178.95470688416492 A13 13 0 0 0 650.5 178.95470688416492 L650.5 737" transform="matrix(1,0,0,1,0,4.3507890701293945)" style="fill:rgb(255, 255, 255);transform:matrix(1, 0, 0, 1, 0, 4.35079);;animation:none"></path>
<path fill="#000" d="M623.5 479.6424437600105 L623.5 496.284887520021 A13 13 0 0 0 650.5 496.284887520021 L650.5 479.6424437600105 A13 13 0 0 0 623.5 479.6424437600105" transform="matrix(1,0,0,1,0,-123.87660217285156)" opacity="0.913349" style="fill:rgb(0, 0, 0);transform:matrix(1, 0, 0, 1, 0, -123.877);opacity:0.913349;;animation:none"></path>
<path fill="#fff" d="M649.5 737 L649.5 135.48251952698888 A13 13 0 0 1 676.5 135.48251952698888 L676.5 737" transform="matrix(1,0,0,1,0,-26.313905715942383)" style="fill:rgb(255, 255, 255);transform:matrix(1, 0, 0, 1, 0, -26.3139);;animation:none"></path>
<path fill="#fff" d="M649.5 161.48251952698888 L649.5 184.4917145653606 A13 13 0 0 0 676.5 184.4917145653606 L676.5 161.48251952698888 A13 13 0 0 0 649.5 161.48251952698888" transform="matrix(1,0,0,1,0,0)" opacity="1" style="fill:rgb(255, 255, 255);transform:matrix(1, 0, 0, 1, 0, 0);;animation:none"></path>
<path fill="#fff" d="M675.5 737 L675.5 211.50821775782765 A13 13 0 0 0 702.5 211.50821775782765 L702.5 737" transform="matrix(1,0,0,1,0,17.102529525756836)" style="fill:rgb(255, 255, 255);transform:matrix(1, 0, 0, 1, 0, 17.1025);;animation:none"></path>
<path fill="#000" d="M675.5 485.9713362640568 L675.5 508.9426725281136 A13 13 0 0 0 702.5 508.9426725281136 L702.5 485.9713362640568 A13 13 0 0 0 675.5 485.9713362640568" transform="matrix(1,0,0,1,0,-372.6031188964844)" opacity="0.234192" style="fill:rgb(0, 0, 0);transform:matrix(1, 0, 0, 1, 0, -372.603);opacity:0.234192;;animation:none"></path>
<path fill="#fff" d="M701.5 737 L701.5 154.60729998814878 A13 13 0 0 1 728.5 154.60729998814878 L728.5 737" transform="matrix(1,0,0,1,0,-17.984586715698242)" style="fill:rgb(255, 255, 255);transform:matrix(1, 0, 0, 1, 0, -17.9846);;animation:none"></path>
<path fill="#fff" d="M701.5 180.60729998814878 L701.5 211.34063027937322 A13 13 0 0 0 728.5 211.34063027937322 L728.5 180.60729998814878 A13 13 0 0 0 701.5 180.60729998814878" transform="matrix(1,0,0,1,0,0)" opacity="0.960187" style="fill:rgb(255, 255, 255);transform:matrix(1, 0, 0, 1, 0, 0);opacity:0.960187;;animation:none"></path>
<path fill="#fff" d="M727.5 737 L727.5 210.13448116628723 A13 13 0 0 0 754.5 210.13448116628723 L754.5 737" transform="matrix(1,0,0,1,0,22.858516693115234)" style="fill:rgb(255, 255, 255);transform:matrix(1, 0, 0, 1, 0, 22.8585);;animation:none"></path>
<path fill="#000" d="M727.5 496.94184755278013 L727.5 530.8836951055603 A13 13 0 0 0 754.5 530.8836951055603 L754.5 496.94184755278013 A13 13 0 0 0 727.5 496.94184755278013" transform="matrix(1,0,0,1,0,-379.17315673828125)" opacity="0.351288" style="fill:rgb(0, 0, 0);transform:matrix(1, 0, 0, 1, 0, -379.173);opacity:0.351288;;animation:none"></path>
<path fill="#fff" d="M753.5 737 L753.5 180.06155064308695 A13 13 0 0 1 780.5 180.06155064308695 L780.5 737" transform="matrix(1,0,0,1,0,-10.700543403625488)" style="fill:rgb(255, 255, 255);transform:matrix(1, 0, 0, 1, 0, -10.7005);;animation:none"></path>
<path fill="#fff" d="M753.5 206.06155064308695 L753.5 222.59739001966133 A13 13 0 0 0 780.5 222.59739001966133 L780.5 206.06155064308695 A13 13 0 0 0 753.5 206.06155064308695" transform="matrix(1,0,0,1,0,0)" opacity="0.819672" style="fill:rgb(255, 255, 255);transform:matrix(1, 0, 0, 1, 0, 0);opacity:0.819672;;animation:none"></path>
<path fill="#fff" d="M779.5 737 L779.5 218.60056608488338 A13 13 0 0 0 806.5 218.60056608488338 L806.5 737" transform="matrix(1,0,0,1,0,0.3934326171875)" style="fill:rgb(255, 255, 255);transform:matrix(1, 0, 0, 1, 0, 0.393433);;animation:none"></path>
<path fill="#000" d="M779.5 480.55284179056224 L779.5 498.1056835811245 A13 13 0 0 0 806.5 498.1056835811245 L806.5 480.55284179056224 A13 13 0 0 0 779.5 480.55284179056224" transform="matrix(1,0,0,1,0,-229.03846740722656)" opacity="0.749415" style="fill:rgb(0, 0, 0);transform:matrix(1, 0, 0, 1, 0, -229.038);opacity:0.749415;;animation:none"></path>
<path fill="#fff" d="M805.5 737 L805.5 163.22489538766285 A13 13 0 0 1 832.5 163.22489538766285 L832.5 737" transform="matrix(1,0,0,1,0,-0.21812137961387634)" style="fill:rgb(255, 255, 255);transform:matrix(1, 0, 0, 1, 0, -0.218121);;animation:none"></path>
<path fill="#fff" d="M805.5 189.22489538766285 L805.5 205.65670631348556 A13 13 0 0 0 832.5 205.65670631348556 L832.5 189.22489538766285 A13 13 0 0 0 805.5 189.22489538766285" transform="matrix(1,0,0,1,0,0)" opacity="1" style="fill:rgb(255, 255, 255);transform:matrix(1, 0, 0, 1, 0, 0);;animation:none"></path>
<path fill="#fff" d="M831.5 737 L831.5 211.2698224350989 A13 13 0 0 0 858.5 211.2698224350989 L858.5 737" transform="matrix(1,0,0,1,0,12.958110809326172)" style="fill:rgb(255, 255, 255);transform:matrix(1, 0, 0, 1, 0, 12.9581);;animation:none"></path>
<path fill="#000" d="M831.5 473.0363231471033 L831.5 483.0726462942066 A13 13 0 0 0 858.5 483.0726462942066 L858.5 473.0363231471033 A13 13 0 0 0 831.5 473.0363231471033" transform="matrix(1,0,0,1,0,-78.82901000976562)" opacity="1" style="fill:rgb(0, 0, 0);transform:matrix(1, 0, 0, 1, 0, -78.829);;animation:none"></path>
<path fill="#fff" d="M857.5 737 L857.5 196.81495010052652 A13 13 0 0 1 884.5 196.81495010052652 L884.5 737" transform="matrix(1,0,0,1,0,-14.536637306213379)" style="fill:rgb(255, 255, 255);transform:matrix(1, 0, 0, 1, 0, -14.5366);;animation:none"></path>
<path fill="#fff" d="M857.5 222.81495010052652 L857.5 254.3653076714073 A13 13 0 0 0 884.5 254.3653076714073 L884.5 222.81495010052652 A13 13 0 0 0 857.5 222.81495010052652" transform="matrix(1,0,0,1,0,0)" opacity="0.538642" style="fill:rgb(255, 255, 255);transform:matrix(1, 0, 0, 1, 0, 0);opacity:0.538642;;animation:none"></path>
<path fill="#fff" d="M883.5 737 L883.5 229.0957012554034 A13 13 0 0 0 910.5 229.0957012554034 L910.5 737" transform="matrix(1,0,0,1,0,18.7655029296875)" style="fill:rgb(255, 255, 255);transform:matrix(1, 0, 0, 1, 0, 18.7655);;animation:none"></path>
<path fill="#000" d="M883.5 501.43563536421755 L883.5 539.8712707284351 A13 13 0 0 0 910.5 539.8712707284351 L910.5 501.43563536421755 A13 13 0 0 0 883.5 501.43563536421755" transform="matrix(1,0,0,1,0,-288.8808898925781)" opacity="0.468384" style="fill:rgb(0, 0, 0);transform:matrix(1, 0, 0, 1, 0, -288.881);opacity:0.468384;;animation:none"></path>
<path fill="#fff" d="M909.5 737 L909.5 177.5065949570294 A13 13 0 0 1 936.5 177.5065949570294 L936.5 737" transform="matrix(1,0,0,1,0,-25.771007537841797)" style="fill:rgb(255, 255, 255);transform:matrix(1, 0, 0, 1, 0, -25.771);;animation:none"></path>
<path fill="#fff" d="M909.5 203.5065949570294 L909.5 220.07484084747324 A13 13 0 0 0 936.5 220.07484084747324 L936.5 203.5065949570294 A13 13 0 0 0 909.5 203.5065949570294" transform="matrix(1,0,0,1,0,0)" opacity="0.796253" style="fill:rgb(255, 255, 255);transform:matrix(1, 0, 0, 1, 0, 0);opacity:0.796253;;animation:none"></path>
<path fill="#fff" d="M935.5 737 L935.5 227.8599572653145 A13 13 0 0 0 962.5 227.8599572653145 L962.5 737" transform="matrix(1,0,0,1,0,17.58268165588379)" style="fill:rgb(255, 255, 255);transform:matrix(1, 0, 0, 1, 0, 17.5827);;animation:none"></path>
<path fill="#000" d="M935.5 501.70740185624715 L935.5 540.4148037124943 A13 13 0 0 0 962.5 540.4148037124943 L962.5 501.70740185624715 A13 13 0 0 0 935.5 501.70740185624715" transform="matrix(1,0,0,1,0,-195.59683227539062)" opacity="0.655738" style="fill:rgb(0, 0, 0);transform:matrix(1, 0, 0, 1, 0, -195.597);opacity:0.655738;;animation:none"></path>
<path fill="#fff" d="M961.5 737 L961.5 164.98219798662996 A13 13 0 0 1 988.5 164.98219798662996 L988.5 737" transform="matrix(1,0,0,1,0,-3.8378639221191406)" style="fill:rgb(255, 255, 255);transform:matrix(1, 0, 0, 1, 0, -3.83786);;animation:none"></path>
<path fill="#fff" d="M961.5 190.98219798662996 L961.5 214.73525648601372 A13 13 0 0 0 988.5 214.73525648601372 L988.5 190.98219798662996 A13 13 0 0 0 961.5 190.98219798662996" transform="matrix(1,0,0,1,0,0)" opacity="0.772833" style="fill:rgb(255, 255, 255);transform:matrix(1, 0, 0, 1, 0, 0);opacity:0.772833;;animation:none"></path>
<path fill="#fff" d="M987.5 737 L987.5 241.21575924649179 A13 13 0 0 0 1014.5 241.21575924649179 L1014.5 737" transform="matrix(1,0,0,1,0,9.766079902648926)" style="fill:rgb(255, 255, 255);transform:matrix(1, 0, 0, 1, 0, 9.76608);;animation:none"></path>
<path fill="#000" d="M987.5 497.8888538471269 L987.5 532.7777076942538 A13 13 0 0 0 1014.5 532.7777076942538 L1014.5 497.8888538471269 A13 13 0 0 0 987.5 497.8888538471269" transform="matrix(1,0,0,1,0,-279.6083679199219)" opacity="0.56206" style="fill:rgb(0, 0, 0);transform:matrix(1, 0, 0, 1, 0, -279.608);opacity:0.56206;;animation:none"></path>
<path fill="#fff" d="M1013.5 737 L1013.5 221.8028694361291 A13 13 0 0 1 1040.5 221.8028694361291 L1040.5 737" transform="matrix(1,0,0,1,0,-5.42973518371582)" style="fill:rgb(255, 255, 255);transform:matrix(1, 0, 0, 1, 0, -5.42974);;animation:none"></path>
<path fill="#fff" d="M1013.5 247.8028694361291 L1013.5 260.65073902269626 A13 13 0 0 0 1040.5 260.65073902269626 L1040.5 247.8028694361291 A13 13 0 0 0 1013.5 247.8028694361291" transform="matrix(1,0,0,1,0,0)" opacity="0.117096" style="fill:rgb(255, 255, 255);transform:matrix(1, 0, 0, 1, 0, 0);opacity:0.117096;;animation:none"></path>
<path fill="#fff" d="M1039.5 737 L1039.5 232.57148436450225 A13 13 0 0 0 1066.5 232.57148436450225 L1066.5 737" transform="matrix(1,0,0,1,0,1.5527667999267578)" style="fill:rgb(255, 255, 255);transform:matrix(1, 0, 0, 1, 0, 1.55277);;animation:none"></path>
<path fill="#000" d="M1039.5 495.05965977964564 L1039.5 527.1193195592913 A13 13 0 0 0 1066.5 527.1193195592913 L1066.5 495.05965977964564 A13 13 0 0 0 1039.5 495.05965977964564" transform="matrix(1,0,0,1,0,-324.571044921875)" opacity="0.0936769" style="fill:rgb(0, 0, 0);transform:matrix(1, 0, 0, 1, 0, -324.571);opacity:0.0936769;;animation:none"></path>
<path fill="#fff" d="M1065.5 737 L1065.5 169.91577739690797 A13 13 0 0 1 1092.5 169.91577739690797 L1092.5 737" transform="matrix(1,0,0,1,0,-0.02594059891998768)" style="fill:rgb(255, 255, 255);transform:matrix(1, 0, 0, 1, 0, -0.0259406);;animation:none"></path>
<path fill="#fff" d="M1065.5 195.91577739690797 L1065.5 225.72958192241396 A13 13 0 0 0 1092.5 225.72958192241396 L1092.5 195.91577739690797 A13 13 0 0 0 1065.5 195.91577739690797" transform="matrix(1,0,0,1,0,0)" opacity="1" style="fill:rgb(255, 255, 255);transform:matrix(1, 0, 0, 1, 0, 0);;animation:none"></path>
<path fill="#fff" d="M1091.5 737 L1091.5 237.5169096409334 A13 13 0 0 0 1118.5 237.5169096409334 L1118.5 737" transform="matrix(1,0,0,1,0,4.208243370056152)" style="fill:rgb(255, 255, 255);transform:matrix(1, 0, 0, 1, 0, 4.20824);;animation:none"></path>
<path fill="#000" d="M1091.5 484.63646311161705 L1091.5 506.2729262232341 A13 13 0 0 0 1118.5 506.2729262232341 L1118.5 484.63646311161705 A13 13 0 0 0 1091.5 484.63646311161705" transform="matrix(1,0,0,1,0,-50.225730895996094)" opacity="1" style="fill:rgb(0, 0, 0);transform:matrix(1, 0, 0, 1, 0, -50.2257);;animation:none"></path>
<path fill="#fff" d="M1117.5 737 L1117.5 198.40639898005517 A13 13 0 0 1 1144.5 198.40639898005517 L1144.5 737" transform="matrix(1,0,0,1,0,-11.456055641174316)" style="fill:rgb(255, 255, 255);transform:matrix(1, 0, 0, 1, 0, -11.4561);;animation:none"></path>
<path fill="#fff" d="M1117.5 224.40639898005517 L1117.5 235.065861828037 A13 13 0 0 0 1144.5 235.065861828037 L1144.5 224.40639898005517 A13 13 0 0 0 1117.5 224.40639898005517" transform="matrix(1,0,0,1,0,0)" opacity="1" style="fill:rgb(255, 255, 255);transform:matrix(1, 0, 0, 1, 0, 0);;animation:none"></path>
<path fill="#fff" d="M1143.5 737 L1143.5 240.81278215462282 A13 13 0 0 0 1170.5 240.81278215462282 L1170.5 737" transform="matrix(1,0,0,1,0,4.983964443206787)" style="fill:rgb(255, 255, 255);transform:matrix(1, 0, 0, 1, 0, 4.98396);;animation:none"></path>
<path fill="#000" d="M1143.5 475.8777730547285 L1143.5 488.755546109457 A13 13 0 0 0 1170.5 488.755546109457 L1170.5 475.8777730547285 A13 13 0 0 0 1143.5 475.8777730547285" transform="matrix(1,0,0,1,0,-208.17080688476562)" opacity="0.725994" style="fill:rgb(0, 0, 0);transform:matrix(1, 0, 0, 1, 0, -208.171);opacity:0.725994;;animation:none"></path>
<path fill="#fff" d="M1169.5 737 L1169.5 187.9144265614592 A13 13 0 0 1 1196.5 187.9144265614592 L1196.5 737" transform="matrix(1,0,0,1,0,-14.004044532775879)" style="fill:rgb(255, 255, 255);transform:matrix(1, 0, 0, 1, 0, -14.004);;animation:none"></path>
<path fill="#fff" d="M1169.5 213.9144265614592 L1169.5 229.53080678172125 A13 13 0 0 0 1196.5 229.53080678172125 L1196.5 213.9144265614592 A13 13 0 0 0 1169.5 213.9144265614592" transform="matrix(1,0,0,1,0,0)" opacity="0.515222" style="fill:rgb(255, 255, 255);transform:matrix(1, 0, 0, 1, 0, 0);opacity:0.515222;;animation:none"></path>
<path fill="#fff" d="M1195.5 737 L1195.5 231.3358472355753 A13 13 0 0 0 1222.5 231.3358472355753 L1222.5 737" transform="matrix(1,0,0,1,0,9.908300399780273)" style="fill:rgb(255, 255, 255);transform:matrix(1, 0, 0, 1, 0, 9.9083);;animation:none"></path>
<path fill="#000" d="M1195.5 495.60203972394197 L1195.5 528.2040794478839 A13 13 0 0 0 1222.5 528.2040794478839 L1222.5 495.60203972394197 A13 13 0 0 0 1195.5 495.60203972394197" transform="matrix(1,0,0,1,0,-96.3548812866211)" opacity="1" style="fill:rgb(0, 0, 0);transform:matrix(1, 0, 0, 1, 0, -96.3549);;animation:none"></path>
<path fill="#fff" d="M1221.5 737 L1221.5 213.55633499449704 A13 13 0 0 1 1248.5 213.55633499449704 L1248.5 737" transform="matrix(1,0,0,1,0,-13.633522033691406)" style="fill:rgb(255, 255, 255);transform:matrix(1, 0, 0, 1, 0, -13.6335);;animation:none"></path>
<path fill="#fff" d="M1221.5 239.556334994497 L1221.5 262.95040914578874 A13 13 0 0 0 1248.5 262.95040914578874 L1248.5 239.556334994497 A13 13 0 0 0 1221.5 239.556334994497" transform="matrix(1,0,0,1,0,0)" opacity="0.538642" style="fill:rgb(255, 255, 255);transform:matrix(1, 0, 0, 1, 0, 0);opacity:0.538642;;animation:none"></path>
<path fill="#fff" d="M1247.5 737 L1247.5 239.75704926147517 A13 13 0 0 0 1274.5 239.75704926147517 L1274.5 737" transform="matrix(1,0,0,1,0,15.574828147888184)" style="fill:rgb(255, 255, 255);transform:matrix(1, 0, 0, 1, 0, 15.5748);;animation:none"></path>
<path fill="#000" d="M1247.5 502.0024316383578 L1247.5 541.0048632767156 A13 13 0 0 0 1274.5 541.0048632767156 L1274.5 502.0024316383578 A13 13 0 0 0 1247.5 502.0024316383578" transform="matrix(1,0,0,1,0,-170.56822204589844)" opacity="0.913349" style="fill:rgb(0, 0, 0);transform:matrix(1, 0, 0, 1, 0, -170.568);opacity:0.913349;;animation:none"></path>
<path fill="#fff" d="M1273.5 737 L1273.5 214.48351799515206 A13 13 0 0 1 1300.5 214.48351799515206 L1300.5 737" transform="matrix(1,0,0,1,0,-9.802477836608887)" style="fill:rgb(255, 255, 255);transform:matrix(1, 0, 0, 1, 0, -9.80248);;animation:none"></path>
<path fill="#fff" d="M1273.5 240.48351799515206 L1273.5 260.8541685289546 A13 13 0 0 0 1300.5 260.8541685289546 L1300.5 240.48351799515206 A13 13 0 0 0 1273.5 240.48351799515206" transform="matrix(1,0,0,1,0,0)" opacity="0.843091" style="fill:rgb(255, 255, 255);transform:matrix(1, 0, 0, 1, 0, 0);opacity:0.843091;;animation:none"></path>
<path fill="#fff" d="M1299.5 737 L1299.5 241.27160914969159 A13 13 0 0 0 1326.5 241.27160914969159 L1326.5 737" transform="matrix(1,0,0,1,0,15.1737699508667)" style="fill:rgb(255, 255, 255);transform:matrix(1, 0, 0, 1, 0, 15.1738);;animation:none"></path>
<path fill="#000" d="M1299.5 486.84961552279697 L1299.5 510.69923104559393 A13 13 0 0 0 1326.5 510.69923104559393 L1326.5 486.84961552279697 A13 13 0 0 0 1299.5 486.84961552279697" transform="matrix(1,0,0,1,0,-363.136962890625)" opacity="0.117096" style="fill:rgb(0, 0, 0);transform:matrix(1, 0, 0, 1, 0, -363.137);opacity:0.117096;;animation:none"></path>
<path fill="#fff" d="M1325.5 737 L1325.5 185.01504515655742 A13 13 0 0 1 1352.5 185.01504515655742 L1352.5 737" transform="matrix(1,0,0,1,0,-0.041313640773296356)" style="fill:rgb(255, 255, 255);transform:matrix(1, 0, 0, 1, 0, -0.0413136);;animation:none"></path>
<path fill="#fff" d="M1325.5 211.01504515655742 L1325.5 236.21301242578656 A13 13 0 0 0 1352.5 236.21301242578656 L1352.5 211.01504515655742 A13 13 0 0 0 1325.5 211.01504515655742" transform="matrix(1,0,0,1,0,0)" opacity="1" style="fill:rgb(255, 255, 255);transform:matrix(1, 0, 0, 1, 0, 0);;animation:none"></path>
<path fill="#fff" d="M1351.5 737 L1351.5 205.15222359909674 A13 13 0 0 0 1378.5 205.15222359909674 L1378.5 737" transform="matrix(1,0,0,1,0,21.278945922851562)" style="fill:rgb(255, 255, 255);transform:matrix(1, 0, 0, 1, 0, 21.2789);;animation:none"></path>
<path fill="#000" d="M1351.5 494.84153826682416 L1351.5 526.6830765336483 A13 13 0 0 0 1378.5 526.6830765336483 L1378.5 494.84153826682416 A13 13 0 0 0 1351.5 494.84153826682416" transform="matrix(1,0,0,1,0,-54.75145721435547)" opacity="1" style="fill:rgb(0, 0, 0);transform:matrix(1, 0, 0, 1, 0, -54.7515);;animation:none"></path>
<path fill="#fff" d="M1377.5 737 L1377.5 188.32451744350803 A13 13 0 0 1 1404.5 188.32451744350803 L1404.5 737" transform="matrix(1,0,0,1,0,-6.644256114959717)" style="fill:rgb(255, 255, 255);transform:matrix(1, 0, 0, 1, 0, -6.64426);;animation:none"></path>
<path fill="#fff" d="M1377.5 214.32451744350803 L1377.5 242.81621237322184 A13 13 0 0 0 1404.5 242.81621237322184 L1404.5 214.32451744350803 A13 13 0 0 0 1377.5 214.32451744350803" transform="matrix(1,0,0,1,0,0)" opacity="0.562061" style="fill:rgb(255, 255, 255);transform:matrix(1, 0, 0, 1, 0, 0);opacity:0.562061;;animation:none"></path>
<path fill="#fff" d="M1403.5 737 L1403.5 234.42535086437596 A13 13 0 0 0 1430.5 234.42535086437596 L1430.5 737" transform="matrix(1,0,0,1,0,0.11266326904296875)" style="fill:rgb(255, 255, 255);transform:matrix(1, 0, 0, 1, 0, 0.112663);;animation:none"></path>
<path fill="#000" d="M1403.5 492.1284743603344 L1403.5 521.2569487206688 A13 13 0 0 0 1430.5 521.2569487206688 L1430.5 492.1284743603344 A13 13 0 0 0 1403.5 492.1284743603344" transform="matrix(1,0,0,1,0,-239.86219787597656)" opacity="0.491803" style="fill:rgb(0, 0, 0);transform:matrix(1, 0, 0, 1, 0, -239.862);opacity:0.491803;;animation:none"></path>
<path fill="#fff" d="M1429.5 737 L1429.5 199.49749242866122 A13 13 0 0 1 1456.5 199.49749242866122 L1456.5 737" transform="matrix(1,0,0,1,0,-1.8728888034820557)" style="fill:rgb(255, 255, 255);transform:matrix(1, 0, 0, 1, 0, -1.87289);;animation:none"></path>
<path fill="#fff" d="M1429.5 225.49749242866122 L1429.5 253.4374780325365 A13 13 0 0 0 1456.5 253.4374780325365 L1456.5 225.49749242866122 A13 13 0 0 0 1429.5 225.49749242866122" transform="matrix(1,0,0,1,0,0)" opacity="1" style="fill:rgb(255, 255, 255);transform:matrix(1, 0, 0, 1, 0, 0);;animation:none"></path>
<path fill="#fff" d="M1455.5 737 L1455.5 227.84155182413193 A13 13 0 0 0 1482.5 227.84155182413193 L1482.5 737" transform="matrix(1,0,0,1,0,23.264514923095703)" style="fill:rgb(255, 255, 255);transform:matrix(1, 0, 0, 1, 0, 23.2645);;animation:none"></path>
<path fill="#000" d="M1455.5 484.1777197318468 L1455.5 505.35543946369364 A13 13 0 0 0 1482.5 505.35543946369364 L1482.5 484.1777197318468 A13 13 0 0 0 1455.5 484.1777197318468" transform="matrix(1,0,0,1,0,-275.3212585449219)" opacity="0.351288" style="fill:rgb(0, 0, 0);transform:matrix(1, 0, 0, 1, 0, -275.321);opacity:0.351288;;animation:none"></path>
<path fill="#fff" d="M1481.5 737 L1481.5 207.23601119123015 A13 13 0 0 1 1508.5 207.23601119123015 L1508.5 737" transform="matrix(1,0,0,1,0,-23.570079803466797)" style="fill:rgb(255, 255, 255);transform:matrix(1, 0, 0, 1, 0, -23.5701);;animation:none"></path>
<path fill="#fff" d="M1481.5 233.23601119123015 L1481.5 269.7292061257376 A13 13 0 0 0 1508.5 269.7292061257376 L1508.5 233.23601119123015 A13 13 0 0 0 1481.5 233.23601119123015" transform="matrix(1,0,0,1,0,0)" opacity="0.843091" style="fill:rgb(255, 255, 255);transform:matrix(1, 0, 0, 1, 0, 0);opacity:0.843091;;animation:none"></path>
<path fill="#fff" d="M1507.5 737 L1507.5 214.21285800147783 A13 13 0 0 0 1534.5 214.21285800147783 L1534.5 737" transform="matrix(1,0,0,1,0,19.72957992553711)" style="fill:rgb(255, 255, 255);transform:matrix(1, 0, 0, 1, 0, 19.7296);;animation:none"></path>
<path fill="#000" d="M1507.5 480.2738902827274 L1507.5 497.5477805654548 A13 13 0 0 0 1534.5 497.5477805654548 L1534.5 480.2738902827274 A13 13 0 0 0 1507.5 480.2738902827274" transform="matrix(1,0,0,1,0,-258.3152160644531)" opacity="0.632317" style="fill:rgb(0, 0, 0);transform:matrix(1, 0, 0, 1, 0, -258.315);opacity:0.632317;;animation:none"></path>
<path fill="#fff" d="M1533.5 737 L1533.5 178.38417001706483 A13 13 0 0 1 1560.5 178.38417001706483 L1560.5 737" transform="matrix(1,0,0,1,0,-5.673610687255859)" style="fill:rgb(255, 255, 255);transform:matrix(1, 0, 0, 1, 0, -5.67361);;animation:none"></path>
<path fill="#fff" d="M1533.5 204.38417001706483 L1533.5 230.56306562589776 A13 13 0 0 0 1560.5 230.56306562589776 L1560.5 204.38417001706483 A13 13 0 0 0 1533.5 204.38417001706483" transform="matrix(1,0,0,1,0,0)" opacity="0.421545" style="fill:rgb(255, 255, 255);transform:matrix(1, 0, 0, 1, 0, 0);opacity:0.421545;;animation:none"></path>
<path fill="#fff" d="M1559.5 737 L1559.5 199.7617689403683 A13 13 0 0 0 1586.5 199.7617689403683 L1586.5 737" transform="matrix(1,0,0,1,0,3.158832550048828)" style="fill:rgb(255, 255, 255);transform:matrix(1, 0, 0, 1, 0, 3.15883);;animation:none"></path>
<path fill="#000" d="M1559.5 493.6108684144033 L1559.5 524.2217368288066 A13 13 0 0 0 1586.5 524.2217368288066 L1586.5 493.6108684144033 A13 13 0 0 0 1559.5 493.6108684144033" transform="matrix(1,0,0,1,0,-292.72265625)" opacity="0.210772" style="fill:rgb(0, 0, 0);transform:matrix(1, 0, 0, 1, 0, -292.723);opacity:0.210772;;animation:none"></path></g></mask></defs>


<rect mask="url(#ldbk-photon-tdzlfg9d0w-mask)" fill="url(#ldbk-photon-tdzlfg9d0w-lg)" height="437" width="1536" y="0" x="0" style="fill:url('#ldbk-photon-tdzlfg9d0w-lg');;animation:none"></rect>
<g></g></g><!-- [ldio] generated by https://loading.io --></svg>