<svg xmlns="http://www.w3.org/2000/svg" viewBox="0 0 1536 703" preserveAspectRatio="xMidYMid" width="1536" height="703" xmlns:xlink="http://www.w3.org/1999/xlink" style="shape-rendering:auto;display:block;background-position-x:0%;background-position-y:0%;background-size:auto;background-origin:padding-box;background-clip:border-box;background:scroll rgba(0, 0, 0, 0) none  repeat;width:1536px;height:703px;;animation:none"><g><defs><linearGradient gradientUnits="userSpaceOnUse" y2="703" y1="331.5" x2="0" x1="0" id="ldbk-photon-ejulkz0pj7-lg"><stop offset="0" stop-color="#6b93fd"></stop>

    
<stop offset="1" stop-color="#6be3fd"></stop></linearGradient>

  
<mask id="ldbk-photon-ejulkz0pj7-mask"><g><path fill="#fff" d="M-0.5 1003 L-0.5 345.49733065079494 A16 16 0 0 0 32.5 345.49733065079494 L32.5 1003" transform="matrix(1,0,0,1,0,0)" style="fill:rgb(255, 255, 255);transform:matrix(1, 0, 0, 1, 0, 0);;animation:none"></path>
<path fill="#000" d="M-0.5 749.9783886680141 L-0.5 764.9567773360282 A16 16 0 0 0 32.5 764.9567773360282 L32.5 749.9783886680141 A16 16 0 0 0 -0.5 749.9783886680141" transform="matrix(1,0,0,1,0,0)" opacity="1" style="fill:rgb(0, 0, 0);transform:matrix(1, 0, 0, 1, 0, 0);;animation:none"></path>
<path fill="#fff" d="M31.5 1003 L31.5 278.7813097392978 A16 16 0 0 1 64.5 278.7813097392978 L64.5 1003" transform="matrix(1,0,0,1,0,-0.4348105788230896)" style="fill:rgb(255, 255, 255);transform:matrix(1, 0, 0, 1, 0, -0.434811);;animation:none"></path>
<path fill="#fff" d="M31.5 310.7813097392978 L31.5 340.55847057704466 A16 16 0 0 0 64.5 340.55847057704466 L64.5 310.7813097392978 A16 16 0 0 0 31.5 310.7813097392978" transform="matrix(1,0,0,1,0,0)" opacity="1" style="fill:rgb(255, 255, 255);transform:matrix(1, 0, 0, 1, 0, 0);;animation:none"></path>
<path fill="#fff" d="M63.5 1003 L63.5 335.2065392129366 A16 16 0 0 0 96.5 335.2065392129366 L96.5 1003" transform="matrix(1,0,0,1,0,12.26742935180664)" style="fill:rgb(255, 255, 255);transform:matrix(1, 0, 0, 1, 0, 12.2674);;animation:none"></path>
<path fill="#000" d="M63.5 766.0635372890516 L63.5 797.1270745781032 A16 16 0 0 0 96.5 797.1270745781032 L96.5 766.0635372890516 A16 16 0 0 0 63.5 766.0635372890516" transform="matrix(1,0,0,1,0,-68.91912841796875)" opacity="1" style="fill:rgb(0, 0, 0);transform:matrix(1, 0, 0, 1, 0, -68.9191);;animation:none"></path>
<path fill="#fff" d="M95.5 1003 L95.5 295.4682261330368 A16 16 0 0 1 128.5 295.4682261330368 L128.5 1003" transform="matrix(1,0,0,1,0,-12.97852611541748)" style="fill:rgb(255, 255, 255);transform:matrix(1, 0, 0, 1, 0, -12.9785);;animation:none"></path>
<path fill="#fff" d="M95.5 327.46822613303686 L95.5 367.2149311779327 A16 16 0 0 0 128.5 367.2149311779327 L128.5 327.46822613303686 A16 16 0 0 0 95.5 327.46822613303686" transform="matrix(1,0,0,1,0,0)" opacity="1" style="fill:rgb(255, 255, 255);transform:matrix(1, 0, 0, 1, 0, 0);;animation:none"></path>
<path fill="#fff" d="M127.5 1003 L127.5 307.0317200694231 A16 16 0 0 0 160.5 307.0317200694231 L160.5 1003" transform="matrix(1,0,0,1,0,13.203646659851074)" style="fill:rgb(255, 255, 255);transform:matrix(1, 0, 0, 1, 0, 13.2036);;animation:none"></path>
<path fill="#000" d="M127.5 773.7609179604716 L127.5 812.5218359209432 A16 16 0 0 0 160.5 812.5218359209432 L160.5 773.7609179604716 A16 16 0 0 0 127.5 773.7609179604716" transform="matrix(1,0,0,1,0,-476.03900146484375)" opacity="0.357143" style="fill:rgb(0, 0, 0);transform:matrix(1, 0, 0, 1, 0, -476.039);opacity:0.357143;;animation:none"></path>
<path fill="#fff" d="M159.5 1003 L159.5 272.00359127291915 A16 16 0 0 1 192.5 272.00359127291915 L192.5 1003" transform="matrix(1,0,0,1,0,-0.42554473876953125)" style="fill:rgb(255, 255, 255);transform:matrix(1, 0, 0, 1, 0, -0.425545);;animation:none"></path>
<path fill="#fff" d="M159.5 304.00359127291915 L159.5 342.5981346107228 A16 16 0 0 0 192.5 342.5981346107228 L192.5 304.00359127291915 A16 16 0 0 0 159.5 304.00359127291915" transform="matrix(1,0,0,1,0,0)" opacity="0.535714" style="fill:rgb(255, 255, 255);transform:matrix(1, 0, 0, 1, 0, 0);opacity:0.535714;;animation:none"></path>
<path fill="#fff" d="M191.5 1003 L191.5 300.54524156448656 A16 16 0 0 0 224.5 300.54524156448656 L224.5 1003" transform="matrix(1,0,0,1,0,16.751977920532227)" style="fill:rgb(255, 255, 255);transform:matrix(1, 0, 0, 1, 0, 16.752);;animation:none"></path>
<path fill="#000" d="M191.5 756.1410060922102 L191.5 777.2820121844204 A16 16 0 0 0 224.5 777.2820121844204 L224.5 756.1410060922102 A16 16 0 0 0 191.5 756.1410060922102" transform="matrix(1,0,0,1,0,-101.48353576660156)" opacity="1" style="fill:rgb(0, 0, 0);transform:matrix(1, 0, 0, 1, 0, -101.484);;animation:none"></path>
<path fill="#fff" d="M223.5 1003 L223.5 262.1511761536108 A16 16 0 0 1 256.5 262.1511761536108 L256.5 1003" transform="matrix(1,0,0,1,0,-26.677108764648438)" style="fill:rgb(255, 255, 255);transform:matrix(1, 0, 0, 1, 0, -26.6771);;animation:none"></path>
<path fill="#fff" d="M223.5 294.1511761536108 L223.5 327.6081240693388 A16 16 0 0 0 256.5 327.6081240693388 L256.5 294.1511761536108 A16 16 0 0 0 223.5 294.1511761536108" transform="matrix(1,0,0,1,0,0)" opacity="0.982143" style="fill:rgb(255, 255, 255);transform:matrix(1, 0, 0, 1, 0, 0);opacity:0.982143;;animation:none"></path>
<path fill="#fff" d="M255.5 1003 L255.5 319.57401042351137 A16 16 0 0 0 288.5 319.57401042351137 L288.5 1003" transform="matrix(1,0,0,1,0,15.802040100097656)" style="fill:rgb(255, 255, 255);transform:matrix(1, 0, 0, 1, 0, 15.802);;animation:none"></path>
<path fill="#000" d="M255.5 761.9785348806647 L255.5 788.9570697613294 A16 16 0 0 0 288.5 788.9570697613294 L288.5 761.9785348806647 A16 16 0 0 0 255.5 761.9785348806647" transform="matrix(1,0,0,1,0,0)" opacity="1" style="fill:rgb(0, 0, 0);transform:matrix(1, 0, 0, 1, 0, 0);;animation:none"></path>
<path fill="#fff" d="M287.5 1003 L287.5 288.4175576052225 A16 16 0 0 1 320.5 288.4175576052225 L320.5 1003" transform="matrix(1,0,0,1,0,-20.146377563476562)" style="fill:rgb(255, 255, 255);transform:matrix(1, 0, 0, 1, 0, -20.1464);;animation:none"></path>
<path fill="#fff" d="M287.5 320.4175576052225 L287.5 351.60880819999574 A16 16 0 0 0 320.5 351.60880819999574 L320.5 320.4175576052225 A16 16 0 0 0 287.5 320.4175576052225" transform="matrix(1,0,0,1,0,0)" opacity="0.625" style="fill:rgb(255, 255, 255);transform:matrix(1, 0, 0, 1, 0, 0);opacity:0.625;;animation:none"></path>
<path fill="#fff" d="M319.5 1003 L319.5 316.577896789264 A16 16 0 0 0 352.5 316.577896789264 L352.5 1003" transform="matrix(1,0,0,1,0,1.9748725891113281)" style="fill:rgb(255, 255, 255);transform:matrix(1, 0, 0, 1, 0, 1.97487);;animation:none"></path>
<path fill="#000" d="M319.5 747.3137940619025 L319.5 759.627588123805 A16 16 0 0 0 352.5 759.627588123805 L352.5 747.3137940619025 A16 16 0 0 0 319.5 747.3137940619025" transform="matrix(1,0,0,1,0,-397.8324890136719)" opacity="0.535714" style="fill:rgb(0, 0, 0);transform:matrix(1, 0, 0, 1, 0, -397.833);opacity:0.535714;;animation:none"></path>
<path fill="#fff" d="M351.5 1003 L351.5 259.8783121516379 A16 16 0 0 1 384.5 259.8783121516379 L384.5 1003" transform="matrix(1,0,0,1,0,-19.39507293701172)" style="fill:rgb(255, 255, 255);transform:matrix(1, 0, 0, 1, 0, -19.3951);;animation:none"></path>
<path fill="#fff" d="M351.5 291.8783121516379 L351.5 317.88554805629974 A16 16 0 0 0 384.5 317.88554805629974 L384.5 291.8783121516379 A16 16 0 0 0 351.5 291.8783121516379" transform="matrix(1,0,0,1,0,0)" opacity="0.446429" style="fill:rgb(255, 255, 255);transform:matrix(1, 0, 0, 1, 0, 0);opacity:0.446429;;animation:none"></path>
<path fill="#fff" d="M383.5 1003 L383.5 314.79732411848255 A16 16 0 0 0 416.5 314.79732411848255 L416.5 1003" transform="matrix(1,0,0,1,0,10.504598617553711)" style="fill:rgb(255, 255, 255);transform:matrix(1, 0, 0, 1, 0, 10.5046);;animation:none"></path>
<path fill="#000" d="M383.5 772.8784432088478 L383.5 810.7568864176956 A16 16 0 0 0 416.5 810.7568864176956 L416.5 772.8784432088478 A16 16 0 0 0 383.5 772.8784432088478" transform="matrix(1,0,0,1,0,-274.91326904296875)" opacity="0.714286" style="fill:rgb(0, 0, 0);transform:matrix(1, 0, 0, 1, 0, -274.913);opacity:0.714286;;animation:none"></path>
<path fill="#fff" d="M415.5 1003 L415.5 292.17148721415936 A16 16 0 0 1 448.5 292.17148721415936 L448.5 1003" transform="matrix(1,0,0,1,0,-5.422525405883789)" style="fill:rgb(255, 255, 255);transform:matrix(1, 0, 0, 1, 0, -5.42253);;animation:none"></path>
<path fill="#fff" d="M415.5 324.17148721415936 L415.5 339.46401605157763 A16 16 0 0 0 448.5 339.46401605157763 L448.5 324.17148721415936 A16 16 0 0 0 415.5 324.17148721415936" transform="matrix(1,0,0,1,0,0)" opacity="0.267857" style="fill:rgb(255, 255, 255);transform:matrix(1, 0, 0, 1, 0, 0);opacity:0.267857;;animation:none"></path>
<path fill="#fff" d="M447.5 1003 L447.5 312.42002977954127 A16 16 0 0 0 480.5 312.42002977954127 L480.5 1003" transform="matrix(1,0,0,1,0,13.792156219482422)" style="fill:rgb(255, 255, 255);transform:matrix(1, 0, 0, 1, 0, 13.7922);;animation:none"></path>
<path fill="#000" d="M447.5 751.3386485405146 L447.5 767.6772970810291 A16 16 0 0 0 480.5 767.6772970810291 L480.5 751.3386485405146 A16 16 0 0 0 447.5 751.3386485405146" transform="matrix(1,0,0,1,0,-619.8173828125)" opacity="0.357143" style="fill:rgb(0, 0, 0);transform:matrix(1, 0, 0, 1, 0, -619.817);opacity:0.357143;;animation:none"></path>
<path fill="#fff" d="M479.5 1003 L479.5 259.5682574884593 A16 16 0 0 1 512.5 259.5682574884593 L512.5 1003" transform="matrix(1,0,0,1,0,-2.6594390869140625)" style="fill:rgb(255, 255, 255);transform:matrix(1, 0, 0, 1, 0, -2.65944);;animation:none"></path>
<path fill="#fff" d="M479.5 291.5682574884593 L479.5 320.0282181890433 A16 16 0 0 0 512.5 320.0282181890433 L512.5 291.5682574884593 A16 16 0 0 0 479.5 291.5682574884593" transform="matrix(1,0,0,1,0,0)" opacity="0.0892857" style="fill:rgb(255, 255, 255);transform:matrix(1, 0, 0, 1, 0, 0);opacity:0.0892857;;animation:none"></path>
<path fill="#fff" d="M511.5 1003 L511.5 311.38791175221763 A16 16 0 0 0 544.5 311.38791175221763 L544.5 1003" transform="matrix(1,0,0,1,0,0)" style="fill:rgb(255, 255, 255);transform:matrix(1, 0, 0, 1, 0, 0);;animation:none"></path>
<path fill="#000" d="M511.5 773.7842003990727 L511.5 812.5684007981454 A16 16 0 0 0 544.5 812.5684007981454 L544.5 773.7842003990727 A16 16 0 0 0 511.5 773.7842003990727" transform="matrix(1,0,0,1,0,-0.00016092450823634863)" opacity="1" style="fill:rgb(0, 0, 0);transform:matrix(1, 0, 0, 1, 0, -0.000160925);;animation:none"></path>
<path fill="#fff" d="M543.5 1003 L543.5 279.0527924494427 A16 16 0 0 1 576.5 279.0527924494427 L576.5 1003" transform="matrix(1,0,0,1,0,-0.4311276972293854)" style="fill:rgb(255, 255, 255);transform:matrix(1, 0, 0, 1, 0, -0.431128);;animation:none"></path>
<path fill="#fff" d="M543.5 311.0527924494427 L543.5 326.4827265892058 A16 16 0 0 0 576.5 326.4827265892058 L576.5 311.0527924494427 A16 16 0 0 0 543.5 311.0527924494427" transform="matrix(1,0,0,1,0,0)" opacity="1" style="fill:rgb(255, 255, 255);transform:matrix(1, 0, 0, 1, 0, 0);;animation:none"></path>
<path fill="#fff" d="M575.5 1003 L575.5 302.0588044823073 A16 16 0 0 0 608.5 302.0588044823073 L608.5 1003" transform="matrix(1,0,0,1,0,22.384540557861328)" style="fill:rgb(255, 255, 255);transform:matrix(1, 0, 0, 1, 0, 22.3845);;animation:none"></path>
<path fill="#000" d="M575.5 750.7403560648728 L575.5 766.4807121297456 A16 16 0 0 0 608.5 766.4807121297456 L608.5 750.7403560648728 A16 16 0 0 0 575.5 750.7403560648728" transform="matrix(1,0,0,1,0,-206.96324157714844)" opacity="0.892857" style="fill:rgb(0, 0, 0);transform:matrix(1, 0, 0, 1, 0, -206.963);opacity:0.892857;;animation:none"></path>
<path fill="#fff" d="M607.5 1003 L607.5 268.1893370377787 A16 16 0 0 1 640.5 268.1893370377787 L640.5 1003" transform="matrix(1,0,0,1,0,-6.1620683670043945)" style="fill:rgb(255, 255, 255);transform:matrix(1, 0, 0, 1, 0, -6.16207);;animation:none"></path>
<path fill="#fff" d="M607.5 300.1893370377787 L607.5 324.7438223626019 A16 16 0 0 0 640.5 324.7438223626019 L640.5 300.1893370377787 A16 16 0 0 0 607.5 300.1893370377787" transform="matrix(1,0,0,1,0,0)" opacity="1" style="fill:rgb(255, 255, 255);transform:matrix(1, 0, 0, 1, 0, 0);;animation:none"></path>
<path fill="#fff" d="M639.5 1003 L639.5 328.0825435497413 A16 16 0 0 0 672.5 328.0825435497413 L672.5 1003" transform="matrix(1,0,0,1,0,13.326085090637207)" style="fill:rgb(255, 255, 255);transform:matrix(1, 0, 0, 1, 0, 13.3261);;animation:none"></path>
<path fill="#000" d="M639.5 747.9816263416915 L639.5 760.963252683383 A16 16 0 0 0 672.5 760.963252683383 L672.5 747.9816263416915 A16 16 0 0 0 639.5 747.9816263416915" transform="matrix(1,0,0,1,0,-200.71109008789062)" opacity="1" style="fill:rgb(0, 0, 0);transform:matrix(1, 0, 0, 1, 0, -200.711);;animation:none"></path>
<path fill="#fff" d="M671.5 1003 L671.5 288.38144545517764 A16 16 0 0 1 704.5 288.38144545517764 L704.5 1003" transform="matrix(1,0,0,1,0,-17.064586639404297)" style="fill:rgb(255, 255, 255);transform:matrix(1, 0, 0, 1, 0, -17.0646);;animation:none"></path>
<path fill="#fff" d="M671.5 320.38144545517764 L671.5 355.5631604959905 A16 16 0 0 0 704.5 355.5631604959905 L704.5 320.38144545517764 A16 16 0 0 0 671.5 320.38144545517764" transform="matrix(1,0,0,1,0,0)" opacity="0.535714" style="fill:rgb(255, 255, 255);transform:matrix(1, 0, 0, 1, 0, 0);opacity:0.535714;;animation:none"></path>
<path fill="#fff" d="M703.5 1003 L703.5 318.4989308971167 A16 16 0 0 0 736.5 318.4989308971167 L736.5 1003" transform="matrix(1,0,0,1,0,1.7199065685272217)" style="fill:rgb(255, 255, 255);transform:matrix(1, 0, 0, 1, 0, 1.71991);;animation:none"></path>
<path fill="#000" d="M703.5 766.2031768397445 L703.5 797.406353679489 A16 16 0 0 0 736.5 797.406353679489 L736.5 766.2031768397445 A16 16 0 0 0 703.5 766.2031768397445" transform="matrix(1,0,0,1,0,-203.19558715820312)" opacity="0.892857" style="fill:rgb(0, 0, 0);transform:matrix(1, 0, 0, 1, 0, -203.196);opacity:0.892857;;animation:none"></path>
<path fill="#fff" d="M735.5 1003 L735.5 306.5756634408102 A16 16 0 0 1 768.5 306.5756634408102 L768.5 1003" transform="matrix(1,0,0,1,0,-13.294374465942383)" style="fill:rgb(255, 255, 255);transform:matrix(1, 0, 0, 1, 0, -13.2944);;animation:none"></path>
<path fill="#fff" d="M735.5 338.5756634408102 L735.5 361.17729467087094 A16 16 0 0 0 768.5 361.17729467087094 L768.5 338.5756634408102 A16 16 0 0 0 735.5 338.5756634408102" transform="matrix(1,0,0,1,0,0)" opacity="0.803571" style="fill:rgb(255, 255, 255);transform:matrix(1, 0, 0, 1, 0, 0);opacity:0.803571;;animation:none"></path>
<path fill="#fff" d="M767.5 1003 L767.5 344.0466057017553 A16 16 0 0 0 800.5 344.0466057017553 L800.5 1003" transform="matrix(1,0,0,1,0,14.832906723022461)" style="fill:rgb(255, 255, 255);transform:matrix(1, 0, 0, 1, 0, 14.8329);;animation:none"></path>
<path fill="#000" d="M767.5 767.7550285101865 L767.5 800.5100570203731 A16 16 0 0 0 800.5 800.5100570203731 L800.5 767.7550285101865 A16 16 0 0 0 767.5 767.7550285101865" transform="matrix(1,0,0,1,0,0)" opacity="1" style="fill:rgb(0, 0, 0);transform:matrix(1, 0, 0, 1, 0, 0);;animation:none"></path>
<path fill="#fff" d="M799.5 1003 L799.5 324.5313506570003 A16 16 0 0 1 832.5 324.5313506570003 L832.5 1003" transform="matrix(1,0,0,1,0,-18.240026473999023)" style="fill:rgb(255, 255, 255);transform:matrix(1, 0, 0, 1, 0, -18.24);;animation:none"></path>
<path fill="#fff" d="M799.5 356.5313506570003 L799.5 377.51071682556335 A16 16 0 0 0 832.5 377.51071682556335 L832.5 356.5313506570003 A16 16 0 0 0 799.5 356.5313506570003" transform="matrix(1,0,0,1,0,0)" opacity="0.446428" style="fill:rgb(255, 255, 255);transform:matrix(1, 0, 0, 1, 0, 0);opacity:0.446428;;animation:none"></path>
<path fill="#fff" d="M831.5 1003 L831.5 348.6106684970676 A16 16 0 0 0 864.5 348.6106684970676 L864.5 1003" transform="matrix(1,0,0,1,0,2.8234634399414062)" style="fill:rgb(255, 255, 255);transform:matrix(1, 0, 0, 1, 0, 2.82346);;animation:none"></path>
<path fill="#000" d="M831.5 773.7741615407652 L831.5 812.5483230815305 A16 16 0 0 0 864.5 812.5483230815305 L864.5 773.7741615407652 A16 16 0 0 0 831.5 773.7741615407652" transform="matrix(1,0,0,1,0,-733.6724243164062)" opacity="0.178571" style="fill:rgb(0, 0, 0);transform:matrix(1, 0, 0, 1, 0, -733.672);opacity:0.178571;;animation:none"></path>
<path fill="#fff" d="M863.5 1003 L863.5 306.6927193424769 A16 16 0 0 1 896.5 306.6927193424769 L896.5 1003" transform="matrix(1,0,0,1,0,-0.4567379057407379)" style="fill:rgb(255, 255, 255);transform:matrix(1, 0, 0, 1, 0, -0.456738);;animation:none"></path>
<path fill="#fff" d="M863.5 338.6927193424769 L863.5 350.9854860484838 A16 16 0 0 0 896.5 350.9854860484838 L896.5 338.6927193424769 A16 16 0 0 0 863.5 338.6927193424769" transform="matrix(1,0,0,1,0,0)" opacity="0.446429" style="fill:rgb(255, 255, 255);transform:matrix(1, 0, 0, 1, 0, 0);opacity:0.446429;;animation:none"></path>
<path fill="#fff" d="M895.5 1003 L895.5 348.75273351008997 A16 16 0 0 0 928.5 348.75273351008997 L928.5 1003" transform="matrix(1,0,0,1,0,9.145529747009277)" style="fill:rgb(255, 255, 255);transform:matrix(1, 0, 0, 1, 0, 9.14553);;animation:none"></path>
<path fill="#000" d="M895.5 758.6332955709576 L895.5 782.2665911419151 A16 16 0 0 0 928.5 782.2665911419151 L928.5 758.6332955709576 A16 16 0 0 0 895.5 758.6332955709576" transform="matrix(1,0,0,1,0,-452.3843078613281)" opacity="0.357143" style="fill:rgb(0, 0, 0);transform:matrix(1, 0, 0, 1, 0, -452.384);opacity:0.357143;;animation:none"></path>
<path fill="#fff" d="M927.5 1003 L927.5 330.6790991948669 A16 16 0 0 1 960.5 330.6790991948669 L960.5 1003" transform="matrix(1,0,0,1,0,-16.40534019470215)" style="fill:rgb(255, 255, 255);transform:matrix(1, 0, 0, 1, 0, -16.4053);;animation:none"></path>
<path fill="#fff" d="M927.5 362.6790991948669 L927.5 394.44163053355146 A16 16 0 0 0 960.5 394.44163053355146 L960.5 362.6790991948669 A16 16 0 0 0 927.5 362.6790991948669" transform="matrix(1,0,0,1,0,0)" opacity="0.267857" style="fill:rgb(255, 255, 255);transform:matrix(1, 0, 0, 1, 0, 0);opacity:0.267857;;animation:none"></path>
<path fill="#fff" d="M959.5 1003 L959.5 357.3415467558582 A16 16 0 0 0 992.5 357.3415467558582 L992.5 1003" transform="matrix(1,0,0,1,0,8.426183700561523)" style="fill:rgb(255, 255, 255);transform:matrix(1, 0, 0, 1, 0, 8.42618);;animation:none"></path>
<path fill="#000" d="M959.5 769.3933209311315 L959.5 803.786641862263 A16 16 0 0 0 992.5 803.786641862263 L992.5 769.3933209311315 A16 16 0 0 0 959.5 769.3933209311315" transform="matrix(1,0,0,1,0,-490.1409912109375)" opacity="0.357143" style="fill:rgb(0, 0, 0);transform:matrix(1, 0, 0, 1, 0, -490.141);opacity:0.357143;;animation:none"></path>
<path fill="#fff" d="M991.5 1003 L991.5 348.34119025480913 A16 16 0 0 1 1024.5 348.34119025480913 L1024.5 1003" transform="matrix(1,0,0,1,0,-0.5229701995849609)" style="fill:rgb(255, 255, 255);transform:matrix(1, 0, 0, 1, 0, -0.52297);;animation:none"></path>
<path fill="#fff" d="M991.5 380.34119025480913 L991.5 416.2337304829448 A16 16 0 0 0 1024.5 416.2337304829448 L1024.5 380.34119025480913 A16 16 0 0 0 991.5 380.34119025480913" transform="matrix(1,0,0,1,0,0)" opacity="0.178571" style="fill:rgb(255, 255, 255);transform:matrix(1, 0, 0, 1, 0, 0);opacity:0.178571;;animation:none"></path>
<path fill="#fff" d="M1023.5 1003 L1023.5 368.93330145835915 A16 16 0 0 0 1056.5 368.93330145835915 L1056.5 1003" transform="matrix(1,0,0,1,0,2.8086618100719996e-11)" style="fill:rgb(255, 255, 255);transform:matrix(1, 0, 0, 1, 0, 2.80866e-11);;animation:none"></path>
<path fill="#000" d="M1023.5 746.5919423283225 L1023.5 758.183884656645 A16 16 0 0 0 1056.5 758.183884656645 L1056.5 746.5919423283225 A16 16 0 0 0 1023.5 746.5919423283225" transform="matrix(1,0,0,1,0,0)" opacity="1" style="fill:rgb(0, 0, 0);transform:matrix(1, 0, 0, 1, 0, 0);;animation:none"></path>
<path fill="#fff" d="M1055.5 1003 L1055.5 318.4935821163397 A16 16 0 0 1 1088.5 318.4935821163397 L1088.5 1003" transform="matrix(1,0,0,1,0,-0.573803722858429)" style="fill:rgb(255, 255, 255);transform:matrix(1, 0, 0, 1, 0, -0.573804);;animation:none"></path>
<path fill="#fff" d="M1055.5 350.4935821163397 L1055.5 379.87519249171385 A16 16 0 0 0 1088.5 379.87519249171385 L1088.5 350.4935821163397 A16 16 0 0 0 1055.5 350.4935821163397" transform="matrix(1,0,0,1,0,0)" opacity="1" style="fill:rgb(255, 255, 255);transform:matrix(1, 0, 0, 1, 0, 0);;animation:none"></path>
<path fill="#fff" d="M1087.5 1003 L1087.5 375.2072159539901 A16 16 0 0 0 1120.5 375.2072159539901 L1120.5 1003" transform="matrix(1,0,0,1,0,18.62411117553711)" style="fill:rgb(255, 255, 255);transform:matrix(1, 0, 0, 1, 0, 18.6241);;animation:none"></path>
<path fill="#000" d="M1087.5 746.700753848042 L1087.5 758.4015076960841 A16 16 0 0 0 1120.5 758.4015076960841 L1120.5 746.700753848042 A16 16 0 0 0 1087.5 746.700753848042" transform="matrix(1,0,0,1,0,-101.98973083496094)" opacity="1" style="fill:rgb(0, 0, 0);transform:matrix(1, 0, 0, 1, 0, -101.99);;animation:none"></path>
<path fill="#fff" d="M1119.5 1003 L1119.5 320.07490323962344 A16 16 0 0 1 1152.5 320.07490323962344 L1152.5 1003" transform="matrix(1,0,0,1,0,-24.768383026123047)" style="fill:rgb(255, 255, 255);transform:matrix(1, 0, 0, 1, 0, -24.7684);;animation:none"></path>
<path fill="#fff" d="M1119.5 352.0749032396234 L1119.5 384.31070463426954 A16 16 0 0 0 1152.5 384.31070463426954 L1152.5 352.0749032396234 A16 16 0 0 0 1119.5 352.0749032396234" transform="matrix(1,0,0,1,0,0)" opacity="0.892857" style="fill:rgb(255, 255, 255);transform:matrix(1, 0, 0, 1, 0, 0);opacity:0.892857;;animation:none"></path>
<path fill="#fff" d="M1151.5 1003 L1151.5 387.3833851678363 A16 16 0 0 0 1184.5 387.3833851678363 L1184.5 1003" transform="matrix(1,0,0,1,0,24.61951446533203)" style="fill:rgb(255, 255, 255);transform:matrix(1, 0, 0, 1, 0, 24.6195);;animation:none"></path>
<path fill="#000" d="M1151.5 766.0297686667037 L1151.5 797.0595373334074 A16 16 0 0 0 1184.5 797.0595373334074 L1184.5 766.0297686667037 A16 16 0 0 0 1151.5 766.0297686667037" transform="matrix(1,0,0,1,0,-313.476318359375)" opacity="0.714286" style="fill:rgb(0, 0, 0);transform:matrix(1, 0, 0, 1, 0, -313.476);opacity:0.714286;;animation:none"></path>
<path fill="#fff" d="M1183.5 1003 L1183.5 347.40311137012554 A16 16 0 0 1 1216.5 347.40311137012554 L1216.5 1003" transform="matrix(1,0,0,1,0,-14.9860200881958)" style="fill:rgb(255, 255, 255);transform:matrix(1, 0, 0, 1, 0, -14.986);;animation:none"></path>
<path fill="#fff" d="M1183.5 379.40311137012554 L1183.5 416.7224316217447 A16 16 0 0 0 1216.5 416.7224316217447 L1216.5 379.40311137012554 A16 16 0 0 0 1183.5 379.40311137012554" transform="matrix(1,0,0,1,0,0)" opacity="0.982143" style="fill:rgb(255, 255, 255);transform:matrix(1, 0, 0, 1, 0, 0);opacity:0.982143;;animation:none"></path>
<path fill="#fff" d="M1215.5 1003 L1215.5 371.702047893275 A16 16 0 0 0 1248.5 371.702047893275 L1248.5 1003" transform="matrix(1,0,0,1,0,17.440040588378906)" style="fill:rgb(255, 255, 255);transform:matrix(1, 0, 0, 1, 0, 17.44);;animation:none"></path>
<path fill="#000" d="M1215.5 754.6969575343095 L1215.5 774.393915068619 A16 16 0 0 0 1248.5 774.393915068619 L1248.5 754.6969575343095 A16 16 0 0 0 1215.5 754.6969575343095" transform="matrix(1,0,0,1,0,-103.49849700927734)" opacity="1" style="fill:rgb(0, 0, 0);transform:matrix(1, 0, 0, 1, 0, -103.499);;animation:none"></path>
<path fill="#fff" d="M1247.5 1003 L1247.5 352.16839317802913 A16 16 0 0 1 1280.5 352.16839317802913 L1280.5 1003" transform="matrix(1,0,0,1,0,-15.89822006225586)" style="fill:rgb(255, 255, 255);transform:matrix(1, 0, 0, 1, 0, -15.8982);;animation:none"></path>
<path fill="#fff" d="M1247.5 384.1683931780292 L1247.5 417.7498475068703 A16 16 0 0 0 1280.5 417.7498475068703 L1280.5 384.1683931780292 A16 16 0 0 0 1247.5 384.1683931780292" transform="matrix(1,0,0,1,0,0)" opacity="0.803571" style="fill:rgb(255, 255, 255);transform:matrix(1, 0, 0, 1, 0, 0);opacity:0.803571;;animation:none"></path>
<path fill="#fff" d="M1279.5 1003 L1279.5 373.8075394640088 A16 16 0 0 0 1312.5 373.8075394640088 L1312.5 1003" transform="matrix(1,0,0,1,0,20.950061798095703)" style="fill:rgb(255, 255, 255);transform:matrix(1, 0, 0, 1, 0, 20.9501);;animation:none"></path>
<path fill="#000" d="M1279.5 763.8794148195725 L1279.5 792.758829639145 A16 16 0 0 0 1312.5 792.758829639145 L1312.5 763.8794148195725 A16 16 0 0 0 1279.5 763.8794148195725" transform="matrix(1,0,0,1,0,0)" opacity="1" style="fill:rgb(0, 0, 0);transform:matrix(1, 0, 0, 1, 0, 0);;animation:none"></path>
<path fill="#fff" d="M1311.5 1003 L1311.5 307.80254414947353 A16 16 0 0 1 1344.5 307.80254414947353 L1344.5 1003" transform="matrix(1,0,0,1,0,-15.97620964050293)" style="fill:rgb(255, 255, 255);transform:matrix(1, 0, 0, 1, 0, -15.9762);;animation:none"></path>
<path fill="#fff" d="M1311.5 339.80254414947353 L1311.5 352.1992512664635 A16 16 0 0 0 1344.5 352.1992512664635 L1344.5 339.80254414947353 A16 16 0 0 0 1311.5 339.80254414947353" transform="matrix(1,0,0,1,0,0)" opacity="0.625" style="fill:rgb(255, 255, 255);transform:matrix(1, 0, 0, 1, 0, 0);opacity:0.625;;animation:none"></path>
<path fill="#fff" d="M1343.5 1003 L1343.5 353.8653446089978 A16 16 0 0 0 1376.5 353.8653446089978 L1376.5 1003" transform="matrix(1,0,0,1,0,15.131728172302246)" style="fill:rgb(255, 255, 255);transform:matrix(1, 0, 0, 1, 0, 15.1317);;animation:none"></path>
<path fill="#000" d="M1343.5 755.9751122512087 L1343.5 776.9502245024173 A16 16 0 0 0 1376.5 776.9502245024173 L1376.5 755.9751122512087 A16 16 0 0 0 1343.5 755.9751122512087" transform="matrix(1,0,0,1,0,-651.5863647460938)" opacity="0.17857" style="fill:rgb(0, 0, 0);transform:matrix(1, 0, 0, 1, 0, -651.586);opacity:0.17857;;animation:none"></path>
<path fill="#fff" d="M1375.5 1003 L1375.5 338.1277571560814 A16 16 0 0 1 1408.5 338.1277571560814 L1408.5 1003" transform="matrix(1,0,0,1,0,-16.975221633911133)" style="fill:rgb(255, 255, 255);transform:matrix(1, 0, 0, 1, 0, -16.9752);;animation:none"></path>
<path fill="#fff" d="M1375.5 370.1277571560814 L1375.5 391.3154537383886 A16 16 0 0 0 1408.5 391.3154537383886 L1408.5 370.1277571560814 A16 16 0 0 0 1375.5 370.1277571560814" transform="matrix(1,0,0,1,0,0)" opacity="1" style="fill:rgb(255, 255, 255);transform:matrix(1, 0, 0, 1, 0, 0);;animation:none"></path>
<path fill="#fff" d="M1407.5 1003 L1407.5 364.73623761374887 A16 16 0 0 0 1440.5 364.73623761374887 L1440.5 1003" transform="matrix(1,0,0,1,0,23.554981231689453)" style="fill:rgb(255, 255, 255);transform:matrix(1, 0, 0, 1, 0, 23.555);;animation:none"></path>
<path fill="#000" d="M1407.5 770.8906390704419 L1407.5 806.7812781408838 A16 16 0 0 0 1440.5 806.7812781408838 L1440.5 770.8906390704419 A16 16 0 0 0 1407.5 770.8906390704419" transform="matrix(1,0,0,1,0,-187.68368530273438)" opacity="1" style="fill:rgb(0, 0, 0);transform:matrix(1, 0, 0, 1, 0, -187.684);;animation:none"></path>
<path fill="#fff" d="M1439.5 1003 L1439.5 319.1953801757204 A16 16 0 0 1 1472.5 319.1953801757204 L1472.5 1003" transform="matrix(1,0,0,1,0,-5.386504173278809)" style="fill:rgb(255, 255, 255);transform:matrix(1, 0, 0, 1, 0, -5.3865);;animation:none"></path>
<path fill="#fff" d="M1439.5 351.1953801757204 L1439.5 374.99597274421046 A16 16 0 0 0 1472.5 374.99597274421046 L1472.5 351.1953801757204 A16 16 0 0 0 1439.5 351.1953801757204" transform="matrix(1,0,0,1,0,0)" opacity="0.80357" style="fill:rgb(255, 255, 255);transform:matrix(1, 0, 0, 1, 0, 0);opacity:0.80357;;animation:none"></path>
<path fill="#fff" d="M1471.5 1003 L1471.5 349.3550842586368 A16 16 0 0 0 1504.5 349.3550842586368 L1504.5 1003" transform="matrix(1,0,0,1,0,10.679478645324707)" style="fill:rgb(255, 255, 255);transform:matrix(1, 0, 0, 1, 0, 10.6795);;animation:none"></path>
<path fill="#000" d="M1471.5 751.2200164588324 L1471.5 767.4400329176649 A16 16 0 0 0 1504.5 767.4400329176649 L1504.5 751.2200164588324 A16 16 0 0 0 1471.5 751.2200164588324" transform="matrix(1,0,0,1,0,-404.2864990234375)" opacity="0.357143" style="fill:rgb(0, 0, 0);transform:matrix(1, 0, 0, 1, 0, -404.287);opacity:0.357143;;animation:none"></path>
<path fill="#fff" d="M1503.5 1003 L1503.5 296.6166851892441 A16 16 0 0 1 1536.5 296.6166851892441 L1536.5 1003" transform="matrix(1,0,0,1,0,-2.0363121032714844)" style="fill:rgb(255, 255, 255);transform:matrix(1, 0, 0, 1, 0, -2.03631);;animation:none"></path>
<path fill="#fff" d="M1503.5 328.6166851892441 L1503.5 340.7758862012691 A16 16 0 0 0 1536.5 340.7758862012691 L1536.5 328.6166851892441 A16 16 0 0 0 1503.5 328.6166851892441" transform="matrix(1,0,0,1,0,0)" opacity="0.0892857" style="fill:rgb(255, 255, 255);transform:matrix(1, 0, 0, 1, 0, 0);opacity:0.0892857;;animation:none"></path></g></mask></defs>


<rect mask="url(#ldbk-photon-ejulkz0pj7-mask)" fill="url(#ldbk-photon-ejulkz0pj7-lg)" height="703" width="1536" y="0" x="0" style="fill:url('#ldbk-photon-ejulkz0pj7-lg');;animation:none"></rect>
<g></g></g><!-- [ldio] generated by https://loading.io --></svg>