<svg xmlns="http://www.w3.org/2000/svg" xmlns:xlink="http://www.w3.org/1999/xlink" viewBox="0,0,256,256" width="512px" height="512px" fill-rule="nonzero"><defs><linearGradient x1="32" y1="14.578" x2="32" y2="32" gradientUnits="userSpaceOnUse" id="color-1"><stop offset="0" stop-color="#ffffff"></stop><stop offset="1" stop-color="#dcdcdc"></stop></linearGradient><linearGradient x1="24.206" y1="23.003" x2="24.206" y2="49.996" gradientUnits="userSpaceOnUse" id="color-2"><stop offset="0" stop-color="#ffffff"></stop><stop offset="1" stop-color="#dcdcdc"></stop></linearGradient><linearGradient x1="32" y1="4.435" x2="32" y2="59.565" gradientUnits="userSpaceOnUse" id="color-3"><stop offset="0" stop-color="#dadada"></stop><stop offset="1" stop-color="#d3d3d3"></stop></linearGradient></defs><g fill="none" fill-rule="nonzero" stroke="none" stroke-width="1" stroke-linecap="butt" stroke-linejoin="miter" stroke-miterlimit="10" stroke-dasharray="" stroke-dashoffset="0" font-family="none" font-weight="none" font-size="none" text-anchor="none" style="mix-blend-mode: normal"><g transform="scale(4,4)"><path d="M33,14.578v6l5.926,3.422l-6.926,4l-6.926,-4l5.926,-3.422v-6l-14.584,8.422l15.584,9l15.584,-9z" fill="url(#color-1)"></path><path d="M16.414,23.004l-0.002,16.841l5.196,-3l0.001,-6.843l6.927,3.998l-0.001,7.998l-5.927,-3.421l-5.196,3l14.586,8.419l0.002,-17.996z" fill="url(#color-2)"></path><path d="M41.392,38.577l5.196,3l-14.586,8.419l-0.002,-17.996l15.586,-8.996l0.002,16.842l-5.196,-3l-0.001,-6.844l-6.927,3.998l0.001,7.998zM32.5,59.432l23,-13.283c0.31,-0.179 0.5,-0.509 0.5,-0.866v-26.565c0,-0.357 -0.19,-0.688 -0.5,-0.866l-23,-13.283c-0.309,-0.178 -0.691,-0.178 -1,0l-23,13.283c-0.31,0.178 -0.5,0.508 -0.5,0.866v26.564c0,0.357 0.19,0.688 0.5,0.866l23,13.283c0.154,0.089 0.327,0.134 0.5,0.134c0.173,0 0.346,-0.044 0.5,-0.133zM10,19.295l22,-12.705l22,12.705v25.41l-22,12.705l-22,-12.705z" fill="url(#color-3)"></path></g></g></svg>