<svg xmlns="http://www.w3.org/2000/svg" viewBox="0 0 1536 654" preserveAspectRatio="xMidYMid" width="1536" height="654" xmlns:xlink="http://www.w3.org/1999/xlink" style="shape-rendering:auto;display:block;background-position-x:0%;background-position-y:0%;background-size:auto;background-origin:padding-box;background-clip:border-box;background:scroll rgba(0, 0, 0, 0) none  repeat;width:1536px;height:654px;;animation:none"><g><linearGradient y2="0" y1="0" x2="1" x1="0" id="lg-3cz6ojczo1v"><stop offset="0" stop-color="#6387f8"></stop>

  
<stop offset="1" stop-color="#63e6f8"></stop></linearGradient>
<path opacity="0.4" fill="url(#lg-3cz6ojczo1v)" d="M 0 0 L 0 277.99 Q 192 237.28 384 211.26 T 768 218.32 T 1152 162.49 T 1536 80.45 L 1536 0 Z" style="fill:url('#lg-3cz6ojczo1v');opacity:0.4;;animation:none"></path>
<path opacity="0.4" fill="url(#lg-3cz6ojczo1v)" d="M 0 0 L 0 283.806 Q 192 231.109 384 201.582 T 768 220.884 T 1152 148.918 T 1536 76.7855 L 1536 0 Z" style="fill:url('#lg-3cz6ojczo1v');opacity:0.4;;animation:none"></path>
<path opacity="0.4" fill="url(#lg-3cz6ojczo1v)" d="M 0 0 L 0 237.023 Q 192 231.265 384 206.518 T 768 158.235 T 1152 145.989 T 1536 150.97 L 1536 0 Z" style="fill:url('#lg-3cz6ojczo1v');opacity:0.4;;animation:none"></path>
<path opacity="0.4" fill="url(#lg-3cz6ojczo1v)" d="M 0 0 L 0 310.252 Q 192 266.215 384 233.643 T 768 206.921 T 1152 169.891 T 1536 138.512 L 1536 0 Z" style="fill:url('#lg-3cz6ojczo1v');opacity:0.4;;animation:none"></path>
<path opacity="0.4" fill="url(#lg-3cz6ojczo1v)" d="M 0 0 L 0 277.434 Q 192 253.926 384 212.033 T 768 246.202 T 1152 159.662 T 1536 183.735 L 1536 0 Z" style="fill:url('#lg-3cz6ojczo1v');opacity:0.4;;animation:none"></path>
<path opacity="0.4" fill="url(#lg-3cz6ojczo1v)" d="M 0 0 L 0 335.217 Q 192 245.371 384 206.176 T 768 259.453 T 1152 183.938 T 1536 111.074 L 1536 0 Z" style="fill:url('#lg-3cz6ojczo1v');opacity:0.4;;animation:none"></path>
<path opacity="0.4" fill="url(#lg-3cz6ojczo1v)" d="M 0 0 L 0 294.113 Q 192 236.26 384 209.202 T 768 250.58 T 1152 133.884 T 1536 149.075 L 1536 0 Z" style="fill:url('#lg-3cz6ojczo1v');opacity:0.4;;animation:none"></path>
<g></g></g><!-- [ldio] generated by https://loading.io --></svg>