<svg xmlns="http://www.w3.org/2000/svg" viewBox="0 0 1435 138" preserveAspectRatio="xMidYMid" width="1435" height="138" xmlns:xlink="http://www.w3.org/1999/xlink" style="shape-rendering:auto;display:block;background-position-x:0%;background-position-y:0%;background-size:auto;background-origin:padding-box;background-clip:border-box;background:scroll rgba(0, 0, 0, 0) none  repeat;width:1435px;height:138px;;animation:none"><g><linearGradient y2="0" y1="0" x2="1" x1="0" id="lg-2iw38pvkh13"><stop offset="0" stop-color="#6387f8"></stop>

  
<stop offset="1" stop-color="#63e6f8"></stop></linearGradient>
<path opacity="0.4" fill="url(#lg-2iw38pvkh13)" d="M 0 0 L 0 123.25 Q 71.75 123.88 143.5 104.6 T 287 111.07 T 430.5 84.39 T 574 79.31 T 717.5 84.61 T 861 85.83 T 1004.5 60.02 T 1148 53.63 T 1291.5 64.05 T 1435 59.39 L 1435 0 Z" style="fill:url('#lg-2iw38pvkh13');opacity:0.4;;animation:none"></path>
<path opacity="0.4" fill="url(#lg-2iw38pvkh13)" d="M 0 0 L 0 116.989 Q 71.75 127.014 143.5 101.041 T 287 103.415 T 430.5 92.8924 T 574 83.1854 T 717.5 76.1618 T 861 69.6876 T 1004.5 60.2284 T 1148 55.5916 T 1291.5 42.2733 T 1435 53.1172 L 1435 0 Z" style="fill:url('#lg-2iw38pvkh13');opacity:0.4;;animation:none"></path>
<path opacity="0.4" fill="url(#lg-2iw38pvkh13)" d="M 0 0 L 0 111.714 Q 71.75 135.661 143.5 105.208 T 287 90.7262 T 430.5 93.6021 T 574 86.8402 T 717.5 69.118 T 861 86.5582 T 1004.5 76.3772 T 1148 69.9973 T 1291.5 52.2544 T 1435 56.8196 L 1435 0 Z" style="fill:url('#lg-2iw38pvkh13');opacity:0.4;;animation:none"></path>
<path opacity="0.4" fill="url(#lg-2iw38pvkh13)" d="M 0 0 L 0 120.801 Q 71.75 147.206 143.5 98.4524 T 287 103.963 T 430.5 83.6901 T 574 81.7814 T 717.5 73.7948 T 861 71.6874 T 1004.5 73.0197 T 1148 58.289 T 1291.5 40.2072 T 1435 37.3089 L 1435 0 Z" style="fill:url('#lg-2iw38pvkh13');opacity:0.4;;animation:none"></path>
<path opacity="0.4" fill="url(#lg-2iw38pvkh13)" d="M 0 0 L 0 115.889 Q 71.75 139.373 143.5 114.208 T 287 100.208 T 430.5 82.569 T 574 90.3911 T 717.5 88.4024 T 861 73.2725 T 1004.5 74.8785 T 1148 63.8376 T 1291.5 55.6735 T 1435 39.4041 L 1435 0 Z" style="fill:url('#lg-2iw38pvkh13');opacity:0.4;;animation:none"></path>
<path opacity="0.4" fill="url(#lg-2iw38pvkh13)" d="M 0 0 L 0 110.529 Q 71.75 125.162 143.5 99.1714 T 287 90.1839 T 430.5 83.0917 T 574 97.7532 T 717.5 80.189 T 861 81.3478 T 1004.5 73.8558 T 1148 71.1578 T 1291.5 44.913 T 1435 37.5738 L 1435 0 Z" style="fill:url('#lg-2iw38pvkh13');opacity:0.4;;animation:none"></path>
<path opacity="0.4" fill="url(#lg-2iw38pvkh13)" d="M 0 0 L 0 110.638 Q 71.75 123.423 143.5 98.1342 T 287 95.524 T 430.5 86.6784 T 574 87.5909 T 717.5 85.2471 T 861 73.7009 T 1004.5 69.8047 T 1148 58.7021 T 1291.5 54.9538 T 1435 40.5366 L 1435 0 Z" style="fill:url('#lg-2iw38pvkh13');opacity:0.4;;animation:none"></path>
<g></g></g><!-- [ldio] generated by https://loading.io --></svg>