<svg xmlns="http://www.w3.org/2000/svg" viewBox="0 0 1435 138" preserveAspectRatio="xMidYMid" width="1435" height="138" xmlns:xlink="http://www.w3.org/1999/xlink" style="shape-rendering:auto;display:block;background-position-x:0%;background-position-y:0%;background-size:auto;background-origin:padding-box;background-clip:border-box;background:scroll rgba(0, 0, 0, 0) none  repeat;width:1435px;height:138px;;animation:none"><g><linearGradient y2="0" y1="0" x2="1" x1="0" id="lg-kex0wjswwtb"><stop offset="0" stop-color="#6387f8"></stop>

  
<stop offset="1" stop-color="#63e6f8"></stop></linearGradient>
<path opacity="0.4" fill="url(#lg-kex0wjswwtb)" d="M 0 0 L 0 125.13 Q 102.5 134.21 205 108.94 T 410 90.66 T 615 77.44 T 820 85.3 T 1025 57.45 T 1230 47.53 T 1435 59.25 L 1435 0 Z" style="fill:url('#lg-kex0wjswwtb');opacity:0.4;;animation:none"></path>
<path opacity="0.4" fill="url(#lg-kex0wjswwtb)" d="M 0 0 L 0 108.04 Q 102.5 138.27 205 99.223 T 410 96.8661 T 615 77.7946 T 820 79.0588 T 1025 65.5605 T 1230 51.1115 T 1435 50.5752 L 1435 0 Z" style="fill:url('#lg-kex0wjswwtb');opacity:0.4;;animation:none"></path>
<path opacity="0.4" fill="url(#lg-kex0wjswwtb)" d="M 0 0 L 0 101.975 Q 102.5 143.39 205 106.679 T 410 94.9562 T 615 86.9558 T 820 60.5027 T 1025 66.3843 T 1230 46.554 T 1435 30.7634 L 1435 0 Z" style="fill:url('#lg-kex0wjswwtb');opacity:0.4;;animation:none"></path>
<path opacity="0.4" fill="url(#lg-kex0wjswwtb)" d="M 0 0 L 0 101.737 Q 102.5 130.01 205 98.8738 T 410 83.053 T 615 79.8974 T 820 73.2934 T 1025 59.6773 T 1230 42.4058 T 1435 47.4184 L 1435 0 Z" style="fill:url('#lg-kex0wjswwtb');opacity:0.4;;animation:none"></path>
<path opacity="0.4" fill="url(#lg-kex0wjswwtb)" d="M 0 0 L 0 105.73 Q 102.5 111.54 205 92.1466 T 410 87.0031 T 615 94.301 T 820 66.0536 T 1025 58.4267 T 1230 55.568 T 1435 42.3902 L 1435 0 Z" style="fill:url('#lg-kex0wjswwtb');opacity:0.4;;animation:none"></path>
<path opacity="0.4" fill="url(#lg-kex0wjswwtb)" d="M 0 0 L 0 113.695 Q 102.5 139.913 205 95.6146 T 410 86.8473 T 615 78.928 T 820 61.7492 T 1025 58.5625 T 1230 52.5155 T 1435 37.1107 L 1435 0 Z" style="fill:url('#lg-kex0wjswwtb');opacity:0.4;;animation:none"></path>
<path opacity="0.4" fill="url(#lg-kex0wjswwtb)" d="M 0 0 L 0 122.589 Q 102.5 134.858 205 92.5158 T 410 97.874 T 615 74.1186 T 820 79.0109 T 1025 64.0759 T 1230 52.7413 T 1435 48.5188 L 1435 0 Z" style="fill:url('#lg-kex0wjswwtb');opacity:0.4;;animation:none"></path>
<g></g></g><!-- [ldio] generated by https://loading.io --></svg>