<svg xmlns="http://www.w3.org/2000/svg" viewBox="0 0 1435 138" preserveAspectRatio="xMidYMid" width="1435" height="138" xmlns:xlink="http://www.w3.org/1999/xlink" style="shape-rendering:auto;display:block;background-position-x:0%;background-position-y:0%;background-size:auto;background-origin:padding-box;background-clip:border-box;background:scroll rgba(0, 0, 0, 0) none  repeat;width:1435px;height:138px;;animation:none"><g><linearGradient y2="0" y1="0" x2="1" x1="0" id="lg-ypf0paq9ykl"><stop offset="0" stop-color="#6387f8"></stop>

  
<stop offset="1" stop-color="#63e6f8"></stop></linearGradient>
<path opacity="0.4" fill="url(#lg-ypf0paq9ykl)" d="M 0 0 L 0 103.87 Q 89.69 131.18 179.38 102.55 T 358.75 93.98 T 538.13 99.29 T 717.5 87.64 T 896.88 73.61 T 1076.25 68.26 T 1255.63 46.8 T 1435 54.78 L 1435 0 Z" style="fill:url('#lg-ypf0paq9ykl');opacity:0.4;;animation:none"></path>
<path opacity="0.4" fill="url(#lg-ypf0paq9ykl)" d="M 0 0 L 0 120.912 Q 89.69 126.993 179.38 98.7137 T 358.75 102.405 T 538.13 76.4332 T 717.5 86.5355 T 896.88 71.1016 T 1076.25 71.1016 T 1255.63 63.7533 T 1435 39.1624 L 1435 0 Z" style="fill:url('#lg-ypf0paq9ykl');opacity:0.4;;animation:none"></path>
<path opacity="0.4" fill="url(#lg-ypf0paq9ykl)" d="M 0 0 L 0 123.195 Q 89.69 135.312 179.38 111.978 T 358.75 83.3122 T 538.13 94.6831 T 717.5 69.7707 T 896.88 84.5598 T 1076.25 71.6555 T 1255.63 43.2686 T 1435 55.3498 L 1435 0 Z" style="fill:url('#lg-ypf0paq9ykl');opacity:0.4;;animation:none"></path>
<path opacity="0.4" fill="url(#lg-ypf0paq9ykl)" d="M 0 0 L 0 118.162 Q 89.69 123.681 179.38 93.7475 T 358.75 94.5718 T 538.13 86.452 T 717.5 76.8106 T 896.88 68.1565 T 1076.25 60.0311 T 1255.63 45.5987 T 1435 33.5484 L 1435 0 Z" style="fill:url('#lg-ypf0paq9ykl');opacity:0.4;;animation:none"></path>
<path opacity="0.4" fill="url(#lg-ypf0paq9ykl)" d="M 0 0 L 0 113.272 Q 89.69 128.849 179.38 106.958 T 358.75 101.179 T 538.13 96.5902 T 717.5 70.6665 T 896.88 74.576 T 1076.25 48.5792 T 1255.63 53.8155 T 1435 33.2526 L 1435 0 Z" style="fill:url('#lg-ypf0paq9ykl');opacity:0.4;;animation:none"></path>
<path opacity="0.4" fill="url(#lg-ypf0paq9ykl)" d="M 0 0 L 0 108.642 Q 89.69 125.634 179.38 102.912 T 358.75 96.0489 T 538.13 89.1781 T 717.5 92.8447 T 896.88 73.9334 T 1076.25 64.1705 T 1255.63 48.6789 T 1435 54.6282 L 1435 0 Z" style="fill:url('#lg-ypf0paq9ykl');opacity:0.4;;animation:none"></path>
<path opacity="0.4" fill="url(#lg-ypf0paq9ykl)" d="M 0 0 L 0 117.345 Q 89.69 131.649 179.38 107.391 T 358.75 96.7484 T 538.13 84.5726 T 717.5 70.8289 T 896.88 64.3259 T 1076.25 66.1604 T 1255.63 60.5774 T 1435 54.0299 L 1435 0 Z" style="fill:url('#lg-ypf0paq9ykl');opacity:0.4;;animation:none"></path>
<g></g></g><!-- [ldio] generated by https://loading.io --></svg>