<svg xmlns="http://www.w3.org/2000/svg" viewBox="0 0 1496 247" preserveAspectRatio="xMidYMid" width="1496" height="247" xmlns:xlink="http://www.w3.org/1999/xlink" style="shape-rendering:auto;display:block;background-position-x:0%;background-position-y:0%;background-size:auto;background-origin:padding-box;background-clip:border-box;background:scroll rgba(0, 0, 0, 0) none  repeat;width:1496px;height:247px;;animation:none"><g><defs><linearGradient gradientUnits="userSpaceOnUse" y2="247" y1="103.5" x2="0" x1="0" id="ldbk-photon-xjgc6ygl1ph-lg"><stop offset="0" stop-color="#6b93fd"></stop>

    
<stop offset="1" stop-color="#144b56"></stop></linearGradient>

  
<mask id="ldbk-photon-xjgc6ygl1ph-mask"><g><path fill="#fff" d="M-0.5 547 L-0.5 113.44752086111419 A12.5 12.5 0 0 0 25.5 113.44752086111419 L25.5 547" transform="matrix(1,0,0,1,0,0)" style="fill:rgb(255, 255, 255);transform:matrix(1, 0, 0, 1, 0, 0);;animation:none"></path>
<path fill="#000" d="M-0.5 283.24650726474977 L-0.5 294.49301452949953 A12.5 12.5 0 0 0 25.5 294.49301452949953 L25.5 283.24650726474977 A12.5 12.5 0 0 0 -0.5 283.24650726474977" transform="matrix(1,0,0,1,0,0)" opacity="1" style="fill:rgb(0, 0, 0);transform:matrix(1, 0, 0, 1, 0, 0);;animation:none"></path>
<path fill="#fff" d="M24.5 547 L24.5 66.44488523261631 A12.5 12.5 0 0 1 50.5 66.44488523261631 L50.5 547" transform="matrix(1,0,0,1,0,-0.3493872880935669)" style="fill:rgb(255, 255, 255);transform:matrix(1, 0, 0, 1, 0, -0.349387);;animation:none"></path>
<path fill="#fff" d="M24.5 91.44488523261631 L24.5 123.46741783844408 A12.5 12.5 0 0 0 50.5 123.46741783844408 L50.5 91.44488523261631 A12.5 12.5 0 0 0 24.5 91.44488523261631" transform="matrix(1,0,0,1,0,0)" opacity="1" style="fill:rgb(255, 255, 255);transform:matrix(1, 0, 0, 1, 0, 0);;animation:none"></path>
<path fill="#fff" d="M49.5 547 L49.5 108.24407738902909 A12.5 12.5 0 0 0 75.5 108.24407738902909 L75.5 547" transform="matrix(1,0,0,1,0,1.2822104692459106)" style="fill:rgb(255, 255, 255);transform:matrix(1, 0, 0, 1, 0, 1.28221);;animation:none"></path>
<path fill="#000" d="M49.5 308.02875252538047 L49.5 344.05750505076094 A12.5 12.5 0 0 0 75.5 344.05750505076094 L75.5 308.02875252538047 A12.5 12.5 0 0 0 49.5 308.02875252538047" transform="matrix(1,0,0,1,0,-29.505664825439453)" opacity="1" style="fill:rgb(0, 0, 0);transform:matrix(1, 0, 0, 1, 0, -29.5057);;animation:none"></path>
<path fill="#fff" d="M74.5 547 L74.5 83.38361421511252 A12.5 12.5 0 0 1 100.5 83.38361421511252 L100.5 547" transform="matrix(1,0,0,1,0,-17.015064239501953)" style="fill:rgb(255, 255, 255);transform:matrix(1, 0, 0, 1, 0, -17.0151);;animation:none"></path>
<path fill="#fff" d="M74.5 108.38361421511252 L74.5 140.3981475160055 A12.5 12.5 0 0 0 100.5 140.3981475160055 L100.5 108.38361421511252 A12.5 12.5 0 0 0 74.5 108.38361421511252" transform="matrix(1,0,0,1,0,0)" opacity="0.785714" style="fill:rgb(255, 255, 255);transform:matrix(1, 0, 0, 1, 0, 0);opacity:0.785714;;animation:none"></path>
<path fill="#fff" d="M99.5 547 L99.5 98.2646566945294 A12.5 12.5 0 0 0 125.5 98.2646566945294 L125.5 547" transform="matrix(1,0,0,1,0,17.890317916870117)" style="fill:rgb(255, 255, 255);transform:matrix(1, 0, 0, 1, 0, 17.8903);;animation:none"></path>
<path fill="#000" d="M99.5 308.56321216373874 L99.5 345.1264243274775 A12.5 12.5 0 0 0 125.5 345.1264243274775 L125.5 308.56321216373874 A12.5 12.5 0 0 0 99.5 308.56321216373874" transform="matrix(1,0,0,1,0,-160.72547912597656)" opacity="0.571428" style="fill:rgb(0, 0, 0);transform:matrix(1, 0, 0, 1, 0, -160.725);opacity:0.571428;;animation:none"></path>
<path fill="#fff" d="M124.5 547 L124.5 71.81398506646536 A12.5 12.5 0 0 1 150.5 71.81398506646536 L150.5 547" transform="matrix(1,0,0,1,0,-13.713964462280273)" style="fill:rgb(255, 255, 255);transform:matrix(1, 0, 0, 1, 0, -13.714);;animation:none"></path>
<path fill="#fff" d="M124.5 96.81398506646538 L124.5 132.1824653754481 A12.5 12.5 0 0 0 150.5 132.1824653754481 L150.5 96.81398506646538 A12.5 12.5 0 0 0 124.5 96.81398506646538" transform="matrix(1,0,0,1,0,0)" opacity="0.714286" style="fill:rgb(255, 255, 255);transform:matrix(1, 0, 0, 1, 0, 0);opacity:0.714286;;animation:none"></path>
<path fill="#fff" d="M149.5 547 L149.5 108.33710598714131 A12.5 12.5 0 0 0 175.5 108.33710598714131 L175.5 547" transform="matrix(1,0,0,1,0,10.415376663208008)" style="fill:rgb(255, 255, 255);transform:matrix(1, 0, 0, 1, 0, 10.4154);;animation:none"></path>
<path fill="#000" d="M149.5 288.4804353563693 L149.5 304.9608707127386 A12.5 12.5 0 0 0 175.5 304.9608707127386 L175.5 288.4804353563693 A12.5 12.5 0 0 0 149.5 288.4804353563693" transform="matrix(1,0,0,1,0,-57.07638168334961)" opacity="1" style="fill:rgb(0, 0, 0);transform:matrix(1, 0, 0, 1, 0, -57.0764);;animation:none"></path>
<path fill="#fff" d="M174.5 547 L174.5 79.18442686396634 A12.5 12.5 0 0 1 200.5 79.18442686396634 L200.5 547" transform="matrix(1,0,0,1,0,-17.103708267211914)" style="fill:rgb(255, 255, 255);transform:matrix(1, 0, 0, 1, 0, -17.1037);;animation:none"></path>
<path fill="#fff" d="M174.5 104.18442686396634 L174.5 128.4066353083864 A12.5 12.5 0 0 0 200.5 128.4066353083864 L200.5 104.18442686396634 A12.5 12.5 0 0 0 174.5 104.18442686396634" transform="matrix(1,0,0,1,0,0)" opacity="0.928571" style="fill:rgb(255, 255, 255);transform:matrix(1, 0, 0, 1, 0, 0);opacity:0.928571;;animation:none"></path>
<path fill="#fff" d="M199.5 547 L199.5 85.03480198475029 A12.5 12.5 0 0 0 225.5 85.03480198475029 L225.5 547" transform="matrix(1,0,0,1,0,22.597915649414062)" style="fill:rgb(255, 255, 255);transform:matrix(1, 0, 0, 1, 0, 22.5979);;animation:none"></path>
<path fill="#000" d="M199.5 292.77706856826825 L199.5 313.5541371365365 A12.5 12.5 0 0 0 225.5 313.5541371365365 L225.5 292.77706856826825 A12.5 12.5 0 0 0 199.5 292.77706856826825" transform="matrix(1,0,0,1,0,-95.15438079833984)" opacity="0.857143" style="fill:rgb(0, 0, 0);transform:matrix(1, 0, 0, 1, 0, -95.1544);opacity:0.857143;;animation:none"></path>
<path fill="#fff" d="M224.5 547 L224.5 69.0764850481653 A12.5 12.5 0 0 1 250.5 69.0764850481653 L250.5 547" transform="matrix(1,0,0,1,0,-1.6371135711669922)" style="fill:rgb(255, 255, 255);transform:matrix(1, 0, 0, 1, 0, -1.63711);;animation:none"></path>
<path fill="#fff" d="M224.5 94.0764850481653 L224.5 117.66215249745792 A12.5 12.5 0 0 0 250.5 117.66215249745792 L250.5 94.0764850481653 A12.5 12.5 0 0 0 224.5 94.0764850481653" transform="matrix(1,0,0,1,0,0)" opacity="0.142857" style="fill:rgb(255, 255, 255);transform:matrix(1, 0, 0, 1, 0, 0);opacity:0.142857;;animation:none"></path>
<path fill="#fff" d="M249.5 547 L249.5 86.7185258880879 A12.5 12.5 0 0 0 275.5 86.7185258880879 L275.5 547" transform="matrix(1,0,0,1,0,0)" style="fill:rgb(255, 255, 255);transform:matrix(1, 0, 0, 1, 0, 0);;animation:none"></path>
<path fill="#000" d="M249.5 306.5317549420165 L249.5 341.063509884033 A12.5 12.5 0 0 0 275.5 341.063509884033 L275.5 306.5317549420165 A12.5 12.5 0 0 0 249.5 306.5317549420165" transform="matrix(1,0,0,1,0,-150.8265380859375)" opacity="0.714286" style="fill:rgb(0, 0, 0);transform:matrix(1, 0, 0, 1, 0, -150.827);opacity:0.714286;;animation:none"></path>
<path fill="#fff" d="M274.5 547 L274.5 40.62172262867787 A12.5 12.5 0 0 1 300.5 40.62172262867787 L300.5 547" transform="matrix(1,0,0,1,0,-0.9508401155471802)" style="fill:rgb(255, 255, 255);transform:matrix(1, 0, 0, 1, 0, -0.95084);;animation:none"></path>
<path fill="#fff" d="M274.5 65.62172262867787 L274.5 88.81577513864976 A12.5 12.5 0 0 0 300.5 88.81577513864976 L300.5 65.62172262867787 A12.5 12.5 0 0 0 274.5 65.62172262867787" transform="matrix(1,0,0,1,0,0)" opacity="0.5" style="fill:rgb(255, 255, 255);transform:matrix(1, 0, 0, 1, 0, 0);opacity:0.5;;animation:none"></path>
<path fill="#fff" d="M299.5 547 L299.5 95.25603557609855 A12.5 12.5 0 0 0 325.5 95.25603557609855 L325.5 547" transform="matrix(1,0,0,1,0,21.55847930908203)" style="fill:rgb(255, 255, 255);transform:matrix(1, 0, 0, 1, 0, 21.5585);;animation:none"></path>
<path fill="#000" d="M299.5 306.6373692594744 L299.5 341.27473851894877 A12.5 12.5 0 0 0 325.5 341.27473851894877 L325.5 306.6373692594744 A12.5 12.5 0 0 0 299.5 306.6373692594744" transform="matrix(1,0,0,1,0,-61.34267044067383)" opacity="1" style="fill:rgb(0, 0, 0);transform:matrix(1, 0, 0, 1, 0, -61.3427);;animation:none"></path>
<path fill="#fff" d="M324.5 547 L324.5 42.37437196152635 A12.5 12.5 0 0 1 350.5 42.37437196152635 L350.5 547" transform="matrix(1,0,0,1,0,-12.426301956176758)" style="fill:rgb(255, 255, 255);transform:matrix(1, 0, 0, 1, 0, -12.4263);;animation:none"></path>
<path fill="#fff" d="M324.5 67.37437196152635 L324.5 96.67325822400555 A12.5 12.5 0 0 0 350.5 96.67325822400555 L350.5 67.37437196152635 A12.5 12.5 0 0 0 324.5 67.37437196152635" transform="matrix(1,0,0,1,0,0)" opacity="0.0714284" style="fill:rgb(255, 255, 255);transform:matrix(1, 0, 0, 1, 0, 0);opacity:0.0714284;;animation:none"></path>
<path fill="#fff" d="M349.5 547 L349.5 97.44529924832096 A12.5 12.5 0 0 0 375.5 97.44529924832096 L375.5 547" transform="matrix(1,0,0,1,0,22.80453109741211)" style="fill:rgb(255, 255, 255);transform:matrix(1, 0, 0, 1, 0, 22.8045);;animation:none"></path>
<path fill="#000" d="M349.5 290.50947065510604 L349.5 309.0189413102121 A12.5 12.5 0 0 0 375.5 309.0189413102121 L375.5 290.50947065510604 A12.5 12.5 0 0 0 349.5 290.50947065510604" transform="matrix(1,0,0,1,0,-25.846446990966797)" opacity="1" style="fill:rgb(0, 0, 0);transform:matrix(1, 0, 0, 1, 0, -25.8464);;animation:none"></path>
<path fill="#fff" d="M374.5 547 L374.5 51.21612591376436 A12.5 12.5 0 0 1 400.5 51.21612591376436 L400.5 547" transform="matrix(1,0,0,1,0,-23.813892364501953)" style="fill:rgb(255, 255, 255);transform:matrix(1, 0, 0, 1, 0, -23.8139);;animation:none"></path>
<path fill="#fff" d="M374.5 76.21612591376436 L374.5 92.03821537947341 A12.5 12.5 0 0 0 400.5 92.03821537947341 L400.5 76.21612591376436 A12.5 12.5 0 0 0 374.5 76.21612591376436" transform="matrix(1,0,0,1,0,0)" opacity="0.714286" style="fill:rgb(255, 255, 255);transform:matrix(1, 0, 0, 1, 0, 0);opacity:0.714286;;animation:none"></path>
<path fill="#fff" d="M399.5 547 L399.5 73.16615378450126 A12.5 12.5 0 0 0 425.5 73.16615378450126 L425.5 547" transform="matrix(1,0,0,1,0,8.261831283569336)" style="fill:rgb(255, 255, 255);transform:matrix(1, 0, 0, 1, 0, 8.26183);;animation:none"></path>
<path fill="#000" d="M399.5 307.6671315761189 L399.5 343.3342631522378 A12.5 12.5 0 0 0 425.5 343.3342631522378 L425.5 307.6671315761189 A12.5 12.5 0 0 0 399.5 307.6671315761189" transform="matrix(1,0,0,1,0,-126.56486511230469)" opacity="0.571429" style="fill:rgb(0, 0, 0);transform:matrix(1, 0, 0, 1, 0, -126.565);opacity:0.571429;;animation:none"></path>
<path fill="#fff" d="M424.5 547 L424.5 70.02866508767636 A12.5 12.5 0 0 1 450.5 70.02866508767636 L450.5 547" transform="matrix(1,0,0,1,0,-18.254371643066406)" style="fill:rgb(255, 255, 255);transform:matrix(1, 0, 0, 1, 0, -18.2544);;animation:none"></path>
<path fill="#fff" d="M424.5 95.02866508767636 L424.5 118.94624859449512 A12.5 12.5 0 0 0 450.5 118.94624859449512 L450.5 95.02866508767636 A12.5 12.5 0 0 0 424.5 95.02866508767636" transform="matrix(1,0,0,1,0,0)" opacity="0.214286" style="fill:rgb(255, 255, 255);transform:matrix(1, 0, 0, 1, 0, 0);opacity:0.214286;;animation:none"></path>
<path fill="#fff" d="M449.5 547 L449.5 77.69357892090156 A12.5 12.5 0 0 0 475.5 77.69357892090156 L475.5 547" transform="matrix(1,0,0,1,0,1.6126785278320312)" style="fill:rgb(255, 255, 255);transform:matrix(1, 0, 0, 1, 0, 1.61268);;animation:none"></path>
<path fill="#000" d="M449.5 306.8267650307133 L449.5 341.65353006142664 A12.5 12.5 0 0 0 475.5 341.65353006142664 L475.5 306.8267650307133 A12.5 12.5 0 0 0 449.5 306.8267650307133" transform="matrix(1,0,0,1,0,-157.16226196289062)" opacity="0.285714" style="fill:rgb(0, 0, 0);transform:matrix(1, 0, 0, 1, 0, -157.162);opacity:0.285714;;animation:none"></path>
<path fill="#fff" d="M474.5 547 L474.5 33.148205743245654 A12.5 12.5 0 0 1 500.5 33.148205743245654 L500.5 547" transform="matrix(1,0,0,1,0,-1.4711589813232422)" style="fill:rgb(255, 255, 255);transform:matrix(1, 0, 0, 1, 0, -1.47116);;animation:none"></path>
<path fill="#fff" d="M474.5 58.148205743245654 L474.5 88.71448288135376 A12.5 12.5 0 0 0 500.5 88.71448288135376 L500.5 58.148205743245654 A12.5 12.5 0 0 0 474.5 58.148205743245654" transform="matrix(1,0,0,1,0,0)" opacity="0.0714286" style="fill:rgb(255, 255, 255);transform:matrix(1, 0, 0, 1, 0, 0);opacity:0.0714286;;animation:none"></path>
<path fill="#fff" d="M499.5 547 L499.5 97.97948625761754 A12.5 12.5 0 0 0 525.5 97.97948625761754 L525.5 547" transform="matrix(1,0,0,1,0,0)" style="fill:rgb(255, 255, 255);transform:matrix(1, 0, 0, 1, 0, 0);;animation:none"></path>
<path fill="#000" d="M499.5 300.5564280958647 L499.5 329.1128561917294 A12.5 12.5 0 0 0 525.5 329.1128561917294 L525.5 300.5564280958647 A12.5 12.5 0 0 0 499.5 300.5564280958647" transform="matrix(1,0,0,1,0,0)" opacity="1" style="fill:rgb(0, 0, 0);transform:matrix(1, 0, 0, 1, 0, 0);;animation:none"></path>
<path fill="#fff" d="M524.5 547 L524.5 67.22383488122318 A12.5 12.5 0 0 1 550.5 67.22383488122318 L550.5 547" transform="matrix(1,0,0,1,0,-3.0599865913391113)" style="fill:rgb(255, 255, 255);transform:matrix(1, 0, 0, 1, 0, -3.05999);;animation:none"></path>
<path fill="#fff" d="M524.5 92.2238348812232 L524.5 128.52399919409424 A12.5 12.5 0 0 0 550.5 128.52399919409424 L550.5 92.2238348812232 A12.5 12.5 0 0 0 524.5 92.2238348812232" transform="matrix(1,0,0,1,0,0)" opacity="1" style="fill:rgb(255, 255, 255);transform:matrix(1, 0, 0, 1, 0, 0);;animation:none"></path>
<path fill="#fff" d="M549.5 547 L549.5 90.0432200887434 A12.5 12.5 0 0 0 575.5 90.0432200887434 L575.5 547" transform="matrix(1,0,0,1,0,13.284256935119629)" style="fill:rgb(255, 255, 255);transform:matrix(1, 0, 0, 1, 0, 13.2843);;animation:none"></path>
<path fill="#000" d="M549.5 301.07387301857676 L549.5 330.1477460371535 A12.5 12.5 0 0 0 575.5 330.1477460371535 L575.5 301.07387301857676 A12.5 12.5 0 0 0 549.5 301.07387301857676" transform="matrix(1,0,0,1,0,-71.35359954833984)" opacity="1" style="fill:rgb(0, 0, 0);transform:matrix(1, 0, 0, 1, 0, -71.3536);;animation:none"></path>
<path fill="#fff" d="M574.5 547 L574.5 29.860885268554455 A12.5 12.5 0 0 1 600.5 29.860885268554455 L600.5 547" transform="matrix(1,0,0,1,0,-25.700931549072266)" style="fill:rgb(255, 255, 255);transform:matrix(1, 0, 0, 1, 0, -25.7009);;animation:none"></path>
<path fill="#fff" d="M574.5 54.860885268554455 L574.5 76.947778213942 A12.5 12.5 0 0 0 600.5 76.947778213942 L600.5 54.860885268554455 A12.5 12.5 0 0 0 574.5 54.860885268554455" transform="matrix(1,0,0,1,0,0)" opacity="1" style="fill:rgb(255, 255, 255);transform:matrix(1, 0, 0, 1, 0, 0);;animation:none"></path>
<path fill="#fff" d="M599.5 547 L599.5 63.977107200457965 A12.5 12.5 0 0 0 625.5 63.977107200457965 L625.5 547" transform="matrix(1,0,0,1,0,19.12196922302246)" style="fill:rgb(255, 255, 255);transform:matrix(1, 0, 0, 1, 0, 19.122);;animation:none"></path>
<path fill="#000" d="M599.5 283.00699728846126 L599.5 294.0139945769225 A12.5 12.5 0 0 0 625.5 294.0139945769225 L625.5 283.00699728846126 A12.5 12.5 0 0 0 599.5 283.00699728846126" transform="matrix(1,0,0,1,0,-91.3840560913086)" opacity="0.857143" style="fill:rgb(0, 0, 0);transform:matrix(1, 0, 0, 1, 0, -91.3841);opacity:0.857143;;animation:none"></path>
<path fill="#fff" d="M624.5 547 L624.5 60.68418777381868 A12.5 12.5 0 0 1 650.5 60.68418777381868 L650.5 547" transform="matrix(1,0,0,1,0,-16.902673721313477)" style="fill:rgb(255, 255, 255);transform:matrix(1, 0, 0, 1, 0, -16.9027);;animation:none"></path>
<path fill="#fff" d="M624.5 85.68418777381868 L624.5 101.27677009170367 A12.5 12.5 0 0 0 650.5 101.27677009170367 L650.5 85.68418777381868 A12.5 12.5 0 0 0 624.5 85.68418777381868" transform="matrix(1,0,0,1,0,0)" opacity="0.714286" style="fill:rgb(255, 255, 255);transform:matrix(1, 0, 0, 1, 0, 0);opacity:0.714286;;animation:none"></path>
<path fill="#fff" d="M649.5 547 L649.5 104.77584466623622 A12.5 12.5 0 0 0 675.5 104.77584466623622 L675.5 547" transform="matrix(1,0,0,1,0,10.372298240661621)" style="fill:rgb(255, 255, 255);transform:matrix(1, 0, 0, 1, 0, 10.3723);;animation:none"></path>
<path fill="#000" d="M649.5 301.8039627317748 L649.5 331.6079254635496 A12.5 12.5 0 0 0 675.5 331.6079254635496 L675.5 301.8039627317748 A12.5 12.5 0 0 0 649.5 301.8039627317748" transform="matrix(1,0,0,1,0,-74.67243957519531)" opacity="1" style="fill:rgb(0, 0, 0);transform:matrix(1, 0, 0, 1, 0, -74.6724);;animation:none"></path>
<path fill="#fff" d="M674.5 547 L674.5 77.45418789251869 A12.5 12.5 0 0 1 700.5 77.45418789251869 L700.5 547" transform="matrix(1,0,0,1,0,-0.2837519645690918)" style="fill:rgb(255, 255, 255);transform:matrix(1, 0, 0, 1, 0, -0.283752);;animation:none"></path>
<path fill="#fff" d="M674.5 102.45418789251869 L674.5 117.39959947706338 A12.5 12.5 0 0 0 700.5 117.39959947706338 L700.5 102.45418789251869 A12.5 12.5 0 0 0 674.5 102.45418789251869" transform="matrix(1,0,0,1,0,0)" opacity="0.428571" style="fill:rgb(255, 255, 255);transform:matrix(1, 0, 0, 1, 0, 0);opacity:0.428571;;animation:none"></path>
<path fill="#fff" d="M699.5 547 L699.5 91.0204971185799 A12.5 12.5 0 0 0 725.5 91.0204971185799 L725.5 547" transform="matrix(1,0,0,1,0,6.657623767852783)" style="fill:rgb(255, 255, 255);transform:matrix(1, 0, 0, 1, 0, 6.65762);;animation:none"></path>
<path fill="#000" d="M699.5 287.1690579526715 L699.5 302.338115905343 A12.5 12.5 0 0 0 725.5 302.338115905343 L725.5 287.1690579526715 A12.5 12.5 0 0 0 699.5 287.1690579526715" transform="matrix(1,0,0,1,0,-227.3282012939453)" opacity="0.285714" style="fill:rgb(0, 0, 0);transform:matrix(1, 0, 0, 1, 0, -227.328);opacity:0.285714;;animation:none"></path>
<path fill="#fff" d="M724.5 547 L724.5 81.18416832668964 A12.5 12.5 0 0 1 750.5 81.18416832668964 L750.5 547" transform="matrix(1,0,0,1,0,-1.110321044921875)" style="fill:rgb(255, 255, 255);transform:matrix(1, 0, 0, 1, 0, -1.11032);;animation:none"></path>
<path fill="#fff" d="M724.5 106.18416832668964 L724.5 121.04571041822217 A12.5 12.5 0 0 0 750.5 121.04571041822217 L750.5 106.18416832668964 A12.5 12.5 0 0 0 724.5 106.18416832668964" transform="matrix(1,0,0,1,0,0)" opacity="0.928571" style="fill:rgb(255, 255, 255);transform:matrix(1, 0, 0, 1, 0, 0);opacity:0.928571;;animation:none"></path>
<path fill="#fff" d="M749.5 547 L749.5 102.52106927359452 A12.5 12.5 0 0 0 775.5 102.52106927359452 L775.5 547" transform="matrix(1,0,0,1,0,25.217090606689453)" style="fill:rgb(255, 255, 255);transform:matrix(1, 0, 0, 1, 0, 25.2171);;animation:none"></path>
<path fill="#000" d="M749.5 307.5922255648404 L749.5 343.18445112968084 A12.5 12.5 0 0 0 775.5 343.18445112968084 L775.5 307.5922255648404 A12.5 12.5 0 0 0 749.5 307.5922255648404" transform="matrix(1,0,0,1,0,-131.1597900390625)" opacity="0.714285" style="fill:rgb(0, 0, 0);transform:matrix(1, 0, 0, 1, 0, -131.16);opacity:0.714285;;animation:none"></path>
<path fill="#fff" d="M774.5 547 L774.5 66.03811603379242 A12.5 12.5 0 0 1 800.5 66.03811603379242 L800.5 547" transform="matrix(1,0,0,1,0,-23.0875301361084)" style="fill:rgb(255, 255, 255);transform:matrix(1, 0, 0, 1, 0, -23.0875);;animation:none"></path>
<path fill="#fff" d="M774.5 91.03811603379242 L774.5 118.98972990090421 A12.5 12.5 0 0 0 800.5 118.98972990090421 L800.5 91.03811603379242 A12.5 12.5 0 0 0 774.5 91.03811603379242" transform="matrix(1,0,0,1,0,0)" opacity="0.642857" style="fill:rgb(255, 255, 255);transform:matrix(1, 0, 0, 1, 0, 0);opacity:0.642857;;animation:none"></path>
<path fill="#fff" d="M799.5 547 L799.5 104.32267384856891 A12.5 12.5 0 0 0 825.5 104.32267384856891 L825.5 547" transform="matrix(1,0,0,1,0,7.37213134765625)" style="fill:rgb(255, 255, 255);transform:matrix(1, 0, 0, 1, 0, 7.37213);;animation:none"></path>
<path fill="#000" d="M799.5 298.35628282965547 L799.5 324.71256565931094 A12.5 12.5 0 0 0 825.5 324.71256565931094 L825.5 298.35628282965547 A12.5 12.5 0 0 0 799.5 298.35628282965547" transform="matrix(1,0,0,1,0,-115.66742706298828)" opacity="0.571429" style="fill:rgb(0, 0, 0);transform:matrix(1, 0, 0, 1, 0, -115.667);opacity:0.571429;;animation:none"></path>
<path fill="#fff" d="M824.5 547 L824.5 63.47265877576564 A12.5 12.5 0 0 1 850.5 63.47265877576564 L850.5 547" transform="matrix(1,0,0,1,0,-17.7634220123291)" style="fill:rgb(255, 255, 255);transform:matrix(1, 0, 0, 1, 0, -17.7634);;animation:none"></path>
<path fill="#fff" d="M824.5 88.47265877576564 L824.5 119.57337310326301 A12.5 12.5 0 0 0 850.5 119.57337310326301 L850.5 88.47265877576564 A12.5 12.5 0 0 0 824.5 88.47265877576564" transform="matrix(1,0,0,1,0,0)" opacity="0.5" style="fill:rgb(255, 255, 255);transform:matrix(1, 0, 0, 1, 0, 0);opacity:0.5;;animation:none"></path>
<path fill="#fff" d="M849.5 547 L849.5 130.51326340972167 A12.5 12.5 0 0 0 875.5 130.51326340972167 L875.5 547" transform="matrix(1,0,0,1,0,25.477018356323242)" style="fill:rgb(255, 255, 255);transform:matrix(1, 0, 0, 1, 0, 25.477);;animation:none"></path>
<path fill="#000" d="M849.5 284.44407406398005 L849.5 296.8881481279601 A12.5 12.5 0 0 0 875.5 296.8881481279601 L875.5 284.44407406398005 A12.5 12.5 0 0 0 849.5 284.44407406398005" transform="matrix(1,0,0,1,0,-172.37106323242188)" opacity="0.428571" style="fill:rgb(0, 0, 0);transform:matrix(1, 0, 0, 1, 0, -172.371);opacity:0.428571;;animation:none"></path>
<path fill="#fff" d="M874.5 547 L874.5 77.38231851621953 A12.5 12.5 0 0 1 900.5 77.38231851621953 L900.5 547" transform="matrix(1,0,0,1,0,-13.08108901977539)" style="fill:rgb(255, 255, 255);transform:matrix(1, 0, 0, 1, 0, -13.0811);;animation:none"></path>
<path fill="#fff" d="M874.5 102.38231851621953 L874.5 117.61104337024402 A12.5 12.5 0 0 0 900.5 117.61104337024402 L900.5 102.38231851621953 A12.5 12.5 0 0 0 874.5 102.38231851621953" transform="matrix(1,0,0,1,0,0)" opacity="1" style="fill:rgb(255, 255, 255);transform:matrix(1, 0, 0, 1, 0, 0);;animation:none"></path>
<path fill="#fff" d="M899.5 547 L899.5 145.65971612694517 A12.5 12.5 0 0 0 925.5 145.65971612694517 L925.5 547" transform="matrix(1,0,0,1,0,19.213953018188477)" style="fill:rgb(255, 255, 255);transform:matrix(1, 0, 0, 1, 0, 19.214);;animation:none"></path>
<path fill="#000" d="M899.5 301.63005738036014 L899.5 331.2601147607203 A12.5 12.5 0 0 0 925.5 331.2601147607203 L925.5 301.63005738036014 A12.5 12.5 0 0 0 899.5 301.63005738036014" transform="matrix(1,0,0,1,0,-89.18976593017578)" opacity="0.857142" style="fill:rgb(0, 0, 0);transform:matrix(1, 0, 0, 1, 0, -89.1898);opacity:0.857142;;animation:none"></path>
<path fill="#fff" d="M924.5 547 L924.5 112.63341596515176 A12.5 12.5 0 0 1 950.5 112.63341596515176 L950.5 547" transform="matrix(1,0,0,1,0,-21.305084228515625)" style="fill:rgb(255, 255, 255);transform:matrix(1, 0, 0, 1, 0, -21.3051);;animation:none"></path>
<path fill="#fff" d="M924.5 137.63341596515176 L924.5 166.5818499476746 A12.5 12.5 0 0 0 950.5 166.5818499476746 L950.5 137.63341596515176 A12.5 12.5 0 0 0 924.5 137.63341596515176" transform="matrix(1,0,0,1,0,0)" opacity="0.214286" style="fill:rgb(255, 255, 255);transform:matrix(1, 0, 0, 1, 0, 0);opacity:0.214286;;animation:none"></path>
<path fill="#fff" d="M949.5 547 L949.5 137.1234914974254 A12.5 12.5 0 0 0 975.5 137.1234914974254 L975.5 547" transform="matrix(1,0,0,1,0,1.0426387786865234)" style="fill:rgb(255, 255, 255);transform:matrix(1, 0, 0, 1, 0, 1.04264);;animation:none"></path>
<path fill="#000" d="M949.5 283.71251894421744 L949.5 295.4250378884349 A12.5 12.5 0 0 0 975.5 295.4250378884349 L975.5 283.71251894421744 A12.5 12.5 0 0 0 949.5 283.71251894421744" transform="matrix(1,0,0,1,0,-158.83580017089844)" opacity="0.428571" style="fill:rgb(0, 0, 0);transform:matrix(1, 0, 0, 1, 0, -158.836);opacity:0.428571;;animation:none"></path>
<path fill="#fff" d="M974.5 547 L974.5 89.72498069079901 A12.5 12.5 0 0 1 1000.5 89.72498069079901 L1000.5 547" transform="matrix(1,0,0,1,0,-0.2728099822998047)" style="fill:rgb(255, 255, 255);transform:matrix(1, 0, 0, 1, 0, -0.27281);;animation:none"></path>
<path fill="#fff" d="M974.5 114.72498069079903 L974.5 139.1860323432952 A12.5 12.5 0 0 0 1000.5 139.1860323432952 L1000.5 114.72498069079903 A12.5 12.5 0 0 0 974.5 114.72498069079903" transform="matrix(1,0,0,1,0,0)" opacity="0.142857" style="fill:rgb(255, 255, 255);transform:matrix(1, 0, 0, 1, 0, 0);opacity:0.142857;;animation:none"></path>
<path fill="#fff" d="M999.5 547 L999.5 140.70616515436646 A12.5 12.5 0 0 0 1025.5 140.70616515436646 L1025.5 547" transform="matrix(1,0,0,1,0,0)" style="fill:rgb(255, 255, 255);transform:matrix(1, 0, 0, 1, 0, 0);;animation:none"></path>
<path fill="#000" d="M999.5 295.6686045333688 L999.5 319.3372090667376 A12.5 12.5 0 0 0 1025.5 319.3372090667376 L1025.5 295.6686045333688 A12.5 12.5 0 0 0 999.5 295.6686045333688" transform="matrix(1,0,0,1,0,-0.00017979936092160642)" opacity="1" style="fill:rgb(0, 0, 0);transform:matrix(1, 0, 0, 1, 0, -0.000179799);;animation:none"></path>
<path fill="#fff" d="M1024.5 547 L1024.5 112.79344460447038 A12.5 12.5 0 0 1 1050.5 112.79344460447038 L1050.5 547" transform="matrix(1,0,0,1,0,-3.321249485015869)" style="fill:rgb(255, 255, 255);transform:matrix(1, 0, 0, 1, 0, -3.32125);;animation:none"></path>
<path fill="#fff" d="M1024.5 137.79344460447038 L1024.5 174.0029129688304 A12.5 12.5 0 0 0 1050.5 174.0029129688304 L1050.5 137.79344460447038 A12.5 12.5 0 0 0 1024.5 137.79344460447038" transform="matrix(1,0,0,1,0,0)" opacity="1" style="fill:rgb(255, 255, 255);transform:matrix(1, 0, 0, 1, 0, 0);;animation:none"></path>
<path fill="#fff" d="M1049.5 547 L1049.5 137.97513992535914 A12.5 12.5 0 0 0 1075.5 137.97513992535914 L1075.5 547" transform="matrix(1,0,0,1,0,10.543769836425781)" style="fill:rgb(255, 255, 255);transform:matrix(1, 0, 0, 1, 0, 10.5438);;animation:none"></path>
<path fill="#000" d="M1049.5 285.8066488684364 L1049.5 299.6132977368728 A12.5 12.5 0 0 0 1075.5 299.6132977368728 L1075.5 285.8066488684364 A12.5 12.5 0 0 0 1049.5 285.8066488684364" transform="matrix(1,0,0,1,0,-78.28168487548828)" opacity="1" style="fill:rgb(0, 0, 0);transform:matrix(1, 0, 0, 1, 0, -78.2817);;animation:none"></path>
<path fill="#fff" d="M1074.5 547 L1074.5 96.66586012255223 A12.5 12.5 0 0 1 1100.5 96.66586012255223 L1100.5 547" transform="matrix(1,0,0,1,0,-3.7611985206604004)" style="fill:rgb(255, 255, 255);transform:matrix(1, 0, 0, 1, 0, -3.7612);;animation:none"></path>
<path fill="#fff" d="M1074.5 121.66586012255223 L1074.5 158.91672114197786 A12.5 12.5 0 0 0 1100.5 158.91672114197786 L1100.5 121.66586012255223 A12.5 12.5 0 0 0 1074.5 121.66586012255223" transform="matrix(1,0,0,1,0,0)" opacity="1" style="fill:rgb(255, 255, 255);transform:matrix(1, 0, 0, 1, 0, 0);;animation:none"></path>
<path fill="#fff" d="M1099.5 547 L1099.5 156.02349818626618 A12.5 12.5 0 0 0 1125.5 156.02349818626618 L1125.5 547" transform="matrix(1,0,0,1,0,5.416937351226807)" style="fill:rgb(255, 255, 255);transform:matrix(1, 0, 0, 1, 0, 5.41694);;animation:none"></path>
<path fill="#000" d="M1099.5 297.30788590632227 L1099.5 322.61577181264454 A12.5 12.5 0 0 0 1125.5 322.61577181264454 L1125.5 297.30788590632227 A12.5 12.5 0 0 0 1099.5 297.30788590632227" transform="matrix(1,0,0,1,0,-106.56670379638672)" opacity="0.857143" style="fill:rgb(0, 0, 0);transform:matrix(1, 0, 0, 1, 0, -106.567);opacity:0.857143;;animation:none"></path>
<path fill="#fff" d="M1124.5 547 L1124.5 83.47472599417614 A12.5 12.5 0 0 1 1150.5 83.47472599417614 L1150.5 547" transform="matrix(1,0,0,1,0,-7.448268890380859)" style="fill:rgb(255, 255, 255);transform:matrix(1, 0, 0, 1, 0, -7.44827);;animation:none"></path>
<path fill="#fff" d="M1124.5 108.47472599417614 L1124.5 126.81842864666297 A12.5 12.5 0 0 0 1150.5 126.81842864666297 L1150.5 108.47472599417614 A12.5 12.5 0 0 0 1124.5 108.47472599417614" transform="matrix(1,0,0,1,0,0)" opacity="1" style="fill:rgb(255, 255, 255);transform:matrix(1, 0, 0, 1, 0, 0);;animation:none"></path>
<path fill="#fff" d="M1149.5 547 L1149.5 148.45678770569288 A12.5 12.5 0 0 0 1175.5 148.45678770569288 L1175.5 547" transform="matrix(1,0,0,1,0,1.2976799011230469)" style="fill:rgb(255, 255, 255);transform:matrix(1, 0, 0, 1, 0, 1.29768);;animation:none"></path>
<path fill="#000" d="M1149.5 308.6255663735508 L1149.5 345.25113274710156 A12.5 12.5 0 0 0 1175.5 345.25113274710156 L1175.5 308.6255663735508 A12.5 12.5 0 0 0 1149.5 308.6255663735508" transform="matrix(1,0,0,1,0,-91.05882263183594)" opacity="1" style="fill:rgb(0, 0, 0);transform:matrix(1, 0, 0, 1, 0, -91.0588);;animation:none"></path>
<path fill="#fff" d="M1174.5 547 L1174.5 139.0508409637663 A12.5 12.5 0 0 1 1200.5 139.0508409637663 L1200.5 547" transform="matrix(1,0,0,1,0,-22.94902229309082)" style="fill:rgb(255, 255, 255);transform:matrix(1, 0, 0, 1, 0, -22.949);;animation:none"></path>
<path fill="#fff" d="M1174.5 164.0508409637663 L1174.5 200.35987454801304 A12.5 12.5 0 0 0 1200.5 200.35987454801304 L1200.5 164.0508409637663 A12.5 12.5 0 0 0 1174.5 164.0508409637663" transform="matrix(1,0,0,1,0,0)" opacity="0.928571" style="fill:rgb(255, 255, 255);transform:matrix(1, 0, 0, 1, 0, 0);opacity:0.928571;;animation:none"></path>
<path fill="#fff" d="M1199.5 547 L1199.5 158.7488898596905 A12.5 12.5 0 0 0 1225.5 158.7488898596905 L1225.5 547" transform="matrix(1,0,0,1,0,5.107894420623779)" style="fill:rgb(255, 255, 255);transform:matrix(1, 0, 0, 1, 0, 5.10789);;animation:none"></path>
<path fill="#000" d="M1199.5 292.7178801988885 L1199.5 313.435760397777 A12.5 12.5 0 0 0 1225.5 313.435760397777 L1225.5 292.7178801988885 A12.5 12.5 0 0 0 1199.5 292.7178801988885" transform="matrix(1,0,0,1,0,-45.18706130981445)" opacity="1" style="fill:rgb(0, 0, 0);transform:matrix(1, 0, 0, 1, 0, -45.1871);;animation:none"></path>
<path fill="#fff" d="M1224.5 547 L1224.5 77.4444304942134 A12.5 12.5 0 0 1 1250.5 77.4444304942134 L1250.5 547" transform="matrix(1,0,0,1,0,-15.888639450073242)" style="fill:rgb(255, 255, 255);transform:matrix(1, 0, 0, 1, 0, -15.8886);;animation:none"></path>
<path fill="#fff" d="M1224.5 102.4444304942134 L1224.5 123.90709652888407 A12.5 12.5 0 0 0 1250.5 123.90709652888407 L1250.5 102.4444304942134 A12.5 12.5 0 0 0 1224.5 102.4444304942134" transform="matrix(1,0,0,1,0,0)" opacity="0.142857" style="fill:rgb(255, 255, 255);transform:matrix(1, 0, 0, 1, 0, 0);opacity:0.142857;;animation:none"></path>
<path fill="#fff" d="M1249.5 547 L1249.5 137.9278267924384 A12.5 12.5 0 0 0 1275.5 137.9278267924384 L1275.5 547" transform="matrix(1,0,0,1,0,23.3027400970459)" style="fill:rgb(255, 255, 255);transform:matrix(1, 0, 0, 1, 0, 23.3027);;animation:none"></path>
<path fill="#000" d="M1249.5 306.18559034646955 L1249.5 340.3711806929391 A12.5 12.5 0 0 0 1275.5 340.3711806929391 L1275.5 306.18559034646955 A12.5 12.5 0 0 0 1249.5 306.18559034646955" transform="matrix(1,0,0,1,0,-107.12388610839844)" opacity="0.714285" style="fill:rgb(0, 0, 0);transform:matrix(1, 0, 0, 1, 0, -107.124);opacity:0.714285;;animation:none"></path>
<path fill="#fff" d="M1274.5 547 L1274.5 97.8750690127244 A12.5 12.5 0 0 1 1300.5 97.8750690127244 L1300.5 547" transform="matrix(1,0,0,1,0,-17.77660369873047)" style="fill:rgb(255, 255, 255);transform:matrix(1, 0, 0, 1, 0, -17.7766);;animation:none"></path>
<path fill="#fff" d="M1274.5 122.8750690127244 L1274.5 140.95680078305287 A12.5 12.5 0 0 0 1300.5 140.95680078305287 L1300.5 122.8750690127244 A12.5 12.5 0 0 0 1274.5 122.8750690127244" transform="matrix(1,0,0,1,0,0)" opacity="1" style="fill:rgb(255, 255, 255);transform:matrix(1, 0, 0, 1, 0, 0);;animation:none"></path>
<path fill="#fff" d="M1299.5 547 L1299.5 128.2649973531574 A12.5 12.5 0 0 0 1325.5 128.2649973531574 L1325.5 547" transform="matrix(1,0,0,1,0,17.16165542602539)" style="fill:rgb(255, 255, 255);transform:matrix(1, 0, 0, 1, 0, 17.1617);;animation:none"></path>
<path fill="#000" d="M1299.5 294.82255442601553 L1299.5 317.64510885203106 A12.5 12.5 0 0 0 1325.5 317.64510885203106 L1325.5 294.82255442601553 A12.5 12.5 0 0 0 1299.5 294.82255442601553" transform="matrix(1,0,0,1,0,-46.32492446899414)" opacity="1" style="fill:rgb(0, 0, 0);transform:matrix(1, 0, 0, 1, 0, -46.3249);;animation:none"></path>
<path fill="#fff" d="M1324.5 547 L1324.5 85.81325057977887 A12.5 12.5 0 0 1 1350.5 85.81325057977887 L1350.5 547" transform="matrix(1,0,0,1,0,-0.2992725372314453)" style="fill:rgb(255, 255, 255);transform:matrix(1, 0, 0, 1, 0, -0.299273);;animation:none"></path>
<path fill="#fff" d="M1324.5 110.81325057977887 L1324.5 144.38975150926942 A12.5 12.5 0 0 0 1350.5 144.38975150926942 L1350.5 110.81325057977887 A12.5 12.5 0 0 0 1324.5 110.81325057977887" transform="matrix(1,0,0,1,0,0)" opacity="1" style="fill:rgb(255, 255, 255);transform:matrix(1, 0, 0, 1, 0, 0);;animation:none"></path>
<path fill="#fff" d="M1349.5 547 L1349.5 136.37180394353086 A12.5 12.5 0 0 0 1375.5 136.37180394353086 L1375.5 547" transform="matrix(1,0,0,1,0,1.5202159881591797)" style="fill:rgb(255, 255, 255);transform:matrix(1, 0, 0, 1, 0, 1.52022);;animation:none"></path>
<path fill="#000" d="M1349.5 293.82439249638054 L1349.5 315.6487849927611 A12.5 12.5 0 0 0 1375.5 315.6487849927611 L1375.5 293.82439249638054 A12.5 12.5 0 0 0 1349.5 293.82439249638054" transform="matrix(1,0,0,1,0,-24.47559928894043)" opacity="1" style="fill:rgb(0, 0, 0);transform:matrix(1, 0, 0, 1, 0, -24.4756);;animation:none"></path>
<path fill="#fff" d="M1374.5 547 L1374.5 111.74295528596909 A12.5 12.5 0 0 1 1400.5 111.74295528596909 L1400.5 547" transform="matrix(1,0,0,1,0,-7.637629508972168)" style="fill:rgb(255, 255, 255);transform:matrix(1, 0, 0, 1, 0, -7.63763);;animation:none"></path>
<path fill="#fff" d="M1374.5 136.7429552859691 L1374.5 169.60760792277463 A12.5 12.5 0 0 0 1400.5 169.60760792277463 L1400.5 136.7429552859691 A12.5 12.5 0 0 0 1374.5 136.7429552859691" transform="matrix(1,0,0,1,0,0)" opacity="0.714286" style="fill:rgb(255, 255, 255);transform:matrix(1, 0, 0, 1, 0, 0);opacity:0.714286;;animation:none"></path>
<path fill="#fff" d="M1399.5 547 L1399.5 132.05174530989797 A12.5 12.5 0 0 0 1425.5 132.05174530989797 L1425.5 547" transform="matrix(1,0,0,1,0,5.076915740966797)" style="fill:rgb(255, 255, 255);transform:matrix(1, 0, 0, 1, 0, 5.07692);;animation:none"></path>
<path fill="#000" d="M1399.5 310.37665330495565 L1399.5 348.7533066099113 A12.5 12.5 0 0 0 1425.5 348.7533066099113 L1425.5 310.37665330495565 A12.5 12.5 0 0 0 1399.5 310.37665330495565" transform="matrix(1,0,0,1,0,-121.90618133544922)" opacity="0.571429" style="fill:rgb(0, 0, 0);transform:matrix(1, 0, 0, 1, 0, -121.906);opacity:0.571429;;animation:none"></path>
<path fill="#fff" d="M1424.5 547 L1424.5 95.10569734480839 A12.5 12.5 0 0 1 1450.5 95.10569734480839 L1450.5 547" transform="matrix(1,0,0,1,0,-18.853172302246094)" style="fill:rgb(255, 255, 255);transform:matrix(1, 0, 0, 1, 0, -18.8532);;animation:none"></path>
<path fill="#fff" d="M1424.5 120.10569734480839 L1424.5 144.47681140471568 A12.5 12.5 0 0 0 1450.5 144.47681140471568 L1450.5 120.10569734480839 A12.5 12.5 0 0 0 1424.5 120.10569734480839" transform="matrix(1,0,0,1,0,0)" opacity="0.428572" style="fill:rgb(255, 255, 255);transform:matrix(1, 0, 0, 1, 0, 0);opacity:0.428572;;animation:none"></path>
<path fill="#fff" d="M1449.5 547 L1449.5 127.9543994317844 A12.5 12.5 0 0 0 1475.5 127.9543994317844 L1475.5 547" transform="matrix(1,0,0,1,0,5.063262939453125)" style="fill:rgb(255, 255, 255);transform:matrix(1, 0, 0, 1, 0, 5.06326);;animation:none"></path>
<path fill="#000" d="M1449.5 311.6631425133991 L1449.5 351.32628502679825 A12.5 12.5 0 0 0 1475.5 351.32628502679825 L1475.5 311.6631425133991 A12.5 12.5 0 0 0 1449.5 311.6631425133991" transform="matrix(1,0,0,1,0,-166.8673095703125)" opacity="0.285714" style="fill:rgb(0, 0, 0);transform:matrix(1, 0, 0, 1, 0, -166.867);opacity:0.285714;;animation:none"></path>
<path fill="#fff" d="M1474.5 547 L1474.5 84.06838891332521 A12.5 12.5 0 0 1 1500.5 84.06838891332521 L1500.5 547" transform="matrix(1,0,0,1,0,-2.484654426574707)" style="fill:rgb(255, 255, 255);transform:matrix(1, 0, 0, 1, 0, -2.48465);;animation:none"></path>
<path fill="#fff" d="M1474.5 109.0683889133252 L1474.5 139.73305003699954 A12.5 12.5 0 0 0 1500.5 139.73305003699954 L1500.5 109.0683889133252 A12.5 12.5 0 0 0 1474.5 109.0683889133252" transform="matrix(1,0,0,1,0,0)" opacity="0.214285" style="fill:rgb(255, 255, 255);transform:matrix(1, 0, 0, 1, 0, 0);opacity:0.214285;;animation:none"></path></g></mask></defs>


<rect mask="url(#ldbk-photon-xjgc6ygl1ph-mask)" fill="url(#ldbk-photon-xjgc6ygl1ph-lg)" height="247" width="1496" y="0" x="0" style="fill:url('#ldbk-photon-xjgc6ygl1ph-lg');;animation:none"></rect>
<g></g></g><!-- [ldio] generated by https://loading.io --></svg>
